<svg width="490" height="241" viewBox="0 0 490 241" fill="none" xmlns="http://www.w3.org/2000/svg">
<rect x="40" y="234" width="410" height="1" fill="#E6E7E8"/>
<path d="M200.397 107.138L222.536 143.996L184.407 153.314L166.879 108.674L200.397 107.138Z" fill="#4722E9"/>
<path d="M335.318 85.4313L328.062 120.103L309.046 125.074L302.636 105.881L304.979 95.6808L308.671 79.6053L316.035 81.2161L335.318 85.4313Z" fill="#B39EF5"/>
<path d="M205.022 234.302C205.022 234.302 231.703 123.299 261.833 106.353L303.047 104.093C303.047 104.093 303.047 112.853 312.5 115.5C325 119 329.62 111.724 329.62 111.724C329.62 111.724 354.649 131.686 358.809 137.121L353.481 234.3H205.022V234.302Z" fill="#4722E9"/>
<path d="M362.291 144.594L374.405 215.426C375.82 223.707 372.484 232.162 365.629 237.033C362.104 239.539 358.098 240.785 354.238 239.642C346.395 237.319 341.321 229.746 342.167 221.619L331.436 149.517C330.276 141.725 335.111 134.29 342.71 132.184C351.628 129.71 360.732 135.481 362.291 144.594Z" fill="#4722E9"/>
<path d="M279.7 205H119.3C118.03 205 117 203.963 117 202.684V102.316C117 101.037 118.03 100 119.3 100H279.7C280.97 100 282 101.037 282 102.316V202.684C282 203.963 280.97 205 279.7 205Z" fill="white" stroke="#B39EF5" stroke-miterlimit="10" stroke-linecap="round"/>
<path d="M117 114.875L282 114.875" stroke="#B39EF5" stroke-miterlimit="10" stroke-linecap="round"/>
<path d="M127 107.5C127 108.879 125.884 110 124.5 110C123.121 110 122 108.879 122 107.5C122 106.121 123.116 105 124.5 105C125.884 105 127 106.121 127 107.5Z" stroke="#B39EF5" stroke-miterlimit="10" stroke-linecap="round"/>
<path d="M137 107.5C137 108.879 135.879 110 134.5 110C133.121 110 132 108.879 132 107.5C132 106.121 133.121 105 134.5 105C135.884 105 137 106.121 137 107.5Z" stroke="#B39EF5" stroke-miterlimit="10" stroke-linecap="round"/>
<path d="M147 107.5C147 108.879 145.879 110 144.5 110C143.121 110 142 108.879 142 107.5C142 106.121 143.116 105 144.5 105C145.884 105 147 106.121 147 107.5Z" stroke="#B39EF5" stroke-miterlimit="10" stroke-linecap="round"/>
<path d="M302.688 193.018L284.205 185.121L276.319 204.246L295.691 213.17L302.688 193.018Z" fill="#B39EF5"/>
<path d="M284.205 185.121C284.205 185.121 265.011 177.393 263.919 177.498C262.417 177.645 261.968 180.204 263.355 181.477C264.739 182.749 282.757 191.866 282.757 191.866L284.205 185.121Z" fill="#B39EF5"/>
<path d="M271.153 201.631C272.14 202.242 275.365 203.809 279.174 205.596C281.883 203.986 283.698 190.38 283.698 190.38C283.698 190.38 272.214 185.431 271.127 185.816C270.039 186.195 267.888 188.509 269.485 190.007C269.702 190.213 270.075 190.473 270.548 190.769C268.246 190.83 266.804 194.091 269.05 195.938C269.044 195.938 269.038 195.94 269.034 195.946C268.893 196.095 266.538 198.755 271.153 201.631Z" fill="#B39EF5"/>
<path d="M300.582 192.12C300.582 192.12 294.069 184.985 292.377 181.817C290.683 178.651 287.297 178.641 288.059 182.868C288.822 187.093 288.832 190.366 288.832 190.366L297.596 195.635L300.582 192.12Z" fill="#B39EF5"/>
<path d="M349.926 238.721L287.539 215.1C289.424 215.188 293.413 209.133 296.706 201.096C300.072 192.877 301.46 185.621 299.891 184.616L361.834 205.545C371.466 208.8 376.357 219.49 372.518 228.894C368.906 237.749 358.879 242.11 349.926 238.721Z" fill="#4722E9"/>
<path d="M174.249 96.617C173.862 97.4998 173.919 98.5154 174.316 99.3922C175.514 102.036 179.005 109.134 181.72 108.543C185.048 107.817 182.204 101.925 180.518 98.4222C179.087 95.4447 175.417 93.9629 174.249 96.617Z" fill="#B39EF5"/>
<path d="M179.349 96.9998C179.349 96.9998 183.849 109.366 187.177 108.537C190.506 107.708 187.662 100.993 185.976 96.9998C184.29 93.0067 179.508 91.3742 179.349 96.9998Z" fill="#B39EF5"/>
<path d="M189.818 98.2079C189.818 98.2079 194.08 108.852 196.918 106.968C198.852 105.682 197.591 101.408 195.248 97.8727C193.099 94.6334 188.925 93.703 189.818 98.2079Z" fill="#B39EF5"/>
<path d="M184.266 97.2676C184.266 97.2676 188.738 109.33 192.069 108.539C195.397 107.747 192.325 101.431 190.867 97.5255C188.925 92.3264 184.425 91.8979 184.266 97.2676Z" fill="#B39EF5"/>
<path d="M221.51 146.448C221.543 146.92 221.543 147.391 221.543 147.867C221.543 162.37 210.389 179.096 189.995 179.096V179.088C183.971 179.096 178.072 177.388 173 174.167C173.876 174.272 174.756 174.324 175.639 174.326C180.632 174.33 185.481 172.672 189.409 169.618C184.665 169.529 180.504 166.467 179.051 161.996C180.713 162.314 182.425 162.248 184.057 161.807C178.884 160.773 175.163 156.274 175.163 151.049C175.163 151.001 175.163 150.956 175.163 150.91C176.704 151.76 178.429 152.231 180.195 152.284C175.323 149.06 173.821 142.645 176.763 137.629C182.392 144.486 190.698 148.654 199.614 149.095C198.72 145.283 199.941 141.289 202.822 138.609C207.287 134.453 214.311 134.666 218.508 139.085C220.992 138.6 223.371 137.698 225.549 136.42C224.722 138.961 222.989 141.119 220.675 142.49C222.873 142.234 225.02 141.651 227.042 140.763C225.554 142.971 223.679 144.894 221.51 146.448Z" fill="#1D9BF0"/>
<path d="M334.595 90.5512C334.595 90.5512 330.869 100.796 321.136 100.595C309.936 100.362 308.919 87.0205 308.919 87.0205C308.919 87.0205 312.904 93.6016 320.593 94.7481C329.155 96.0313 334.595 90.5512 334.595 90.5512Z" fill="#9669F7"/>
<path d="M320.484 34.1666C320.484 34.1666 328.252 24.8178 342.266 31.2471C352.159 35.7874 352.911 45.2757 353.501 49.6706C353.727 51.352 353.514 53.0663 352.886 54.6476L345.135 71.9966L335.396 43.6128L320.525 41.645L320.484 34.1666Z" fill="#4D4D4F"/>
<path d="M345.135 71.9965C345.135 71.9965 347.686 69.3705 351.301 71.6982C354.915 74.0258 351.093 83.2012 344.936 83.1559C344.936 83.1559 342.724 83.1611 341.374 81.3645C341.374 81.3645 344.336 74.6229 345.135 71.9965Z" fill="#B39EF5"/>
<path d="M349.806 74.9067C349.806 74.9067 346.747 73.103 343.37 77.4508L349.806 74.9067Z" fill="#4D4D4F"/>
<path d="M304.888 63.3958C304.888 63.3958 303.626 59.9569 299.376 60.6033C295.125 61.2498 294.859 71.186 300.503 73.664C300.503 73.664 302.523 74.5752 304.482 73.481C304.482 73.481 304.537 66.1149 304.888 63.3958Z" fill="#B39EF5"/>
<path d="M299.437 64.1367C299.437 64.1367 302.966 63.7383 304.267 69.094L299.437 64.1367Z" fill="#4D4D4F"/>
<path d="M347.469 63.017C346.237 68.7745 343.105 80.6963 338.035 87.0891C333.273 93.0917 328.147 95.1383 320.894 93.8056C313.639 92.482 307.731 88.952 305.292 79.3214C302.854 69.6909 306.35 54.3412 306.35 54.3412C306.35 54.3412 310.74 33.778 331.063 38.1218C352.472 42.7011 347.469 63.017 347.469 63.017Z" fill="#B39EF5"/>
<path d="M304.888 63.3959L305.102 44.5519C305.21 43.0383 305.738 41.5778 306.647 40.3613C308.923 37.3214 314.998 30.8122 320.496 34.1601L320.534 41.6477C320.534 41.6477 312.662 41.5525 307.53 50.7775L304.888 63.3959Z" fill="#4D4D4F"/>
<path d="M316.321 39.2814C316.321 39.2814 325.306 56.5572 349.775 60.262C349.775 60.262 351.209 42.3481 340.309 38.728C329.409 35.1078 319.027 38.0492 319.027 38.0492L316.321 39.2814Z" fill="#4D4D4F"/>
<path d="M320.525 41.6448C320.525 41.6448 315.637 48.9311 306.587 53.1848C306.593 53.197 308.465 36.4619 320.525 41.6448Z" fill="#4D4D4F"/>
<path d="M332.304 67.504C332.144 68.5121 332.84 69.4578 333.848 69.6174C334.856 69.777 335.802 69.0815 335.961 68.0734C336.121 67.0653 335.426 66.1197 334.417 65.96C333.4 65.7975 332.454 66.493 332.304 67.504Z" fill="#4D4D4F"/>
<path d="M315.161 64.8398C315.002 65.8479 315.697 66.7935 316.705 66.9532C317.714 67.1128 318.659 66.4173 318.819 65.4092C318.978 64.4011 318.283 63.4554 317.275 63.2958C316.267 63.1362 315.321 63.8317 315.161 64.8398Z" fill="#4D4D4F"/>
<path d="M321.302 59.0292L308.897 58.4217C308.897 58.4217 309.591 56.3174 314.667 56.593C319.741 56.8745 321.302 59.0292 321.302 59.0292Z" fill="#4D4D4F"/>
<path d="M330.106 61.047L341.242 65.6211C341.242 65.6211 341.055 62.8287 336.491 60.9892C331.925 59.1569 330.106 61.047 330.106 61.047Z" fill="#4D4D4F"/>
<path d="M323.301 70.5914L323.017 73.23C322.946 73.8996 323.48 74.4576 324.132 74.3914L325.563 74.2484" fill="#4D4D4F"/>
<path d="M317.026 77.5662L330.618 78.758C330.618 78.758 330.086 84.0163 323.463 83.2311C316.839 82.446 317.026 77.5662 317.026 77.5662Z" fill="white"/>
<path d="M356 204L301 186" stroke="white" stroke-width="0.846538" stroke-miterlimit="10" stroke-linecap="round" stroke-linejoin="round"/>
<path d="M338 190L331 145" stroke="white" stroke-width="0.846538" stroke-miterlimit="10" stroke-linecap="round" stroke-linejoin="round"/>
</svg>
