<svg width="490" height="241" viewBox="0 0 490 241" fill="none" xmlns="http://www.w3.org/2000/svg">
<rect x="40" y="215" width="410" height="1" fill="#E6E7E8"/>
<path d="M288.056 68.5916C288.056 68.5916 282.821 58.0059 248.407 66.9476L259.175 86.176L284.6 76.9228L288.056 68.5916Z" fill="#4722E9"/>
<path d="M309.669 87.8895L363.312 129.466C371.189 135.57 372.61 146.903 366.484 154.761C361.15 161.602 351.695 163.673 343.984 159.694L298.167 136.046L309.669 87.8895Z" fill="#4722E9"/>
<path d="M224.752 85.4438C224.752 85.4438 196.364 100.599 194.162 104.998C191.96 109.398 200.769 214.819 200.769 214.819L307.509 215.189L309.669 87.8876C309.669 87.8876 285.93 70.7767 256.075 77.1315C231.384 82.3895 224.752 85.4438 224.752 85.4438Z" fill="#4722E9"/>
<path d="M259.518 86.2248C237.049 96.6142 227.302 84.536 227.302 84.536L227.372 77.7146L227.259 63.8226L226.958 27.6616L253.539 23.2349L259.518 86.2248Z" fill="#B39EF5"/>
<path d="M242.784 70.4846L227.372 77.7144L227.259 63.8224L232.376 64.0404L242.784 70.4846Z" fill="#9669F7"/>
<path d="M221.346 19.2142C221.346 19.2142 214.326 43.1381 218.291 59.8787C222.097 75.9426 240.657 71.3454 242.284 70.749C243.911 70.1527 256.96 59.6982 256.96 59.6982L258.98 26.2074L243.645 16.164L221.346 19.2142Z" fill="#B39EF5"/>
<path d="M242.681 8.79859C239.435 8.85618 236.459 9.46163 232.057 11.0326C231.133 11.3625 230.096 11.9908 228.781 12.069C225.709 12.2479 215.599 10.5661 215.435 17.9035C215.271 25.2409 220.973 31.8194 241.054 29.537C241.054 29.537 245.926 55.3435 256.748 58.8989C256.748 58.8989 258.247 59.161 260.815 52.6416C263.382 46.1221 266.388 37.6835 265.284 31.6876C264.237 26.0197 257.976 8.52444 242.681 8.79859Z" fill="#4D4D4F"/>
<path d="M244.039 46.7637C244.039 46.7637 252.733 36.2867 257.741 40.505C262.748 44.7233 251.998 58.2891 251.998 58.2891L244.039 46.7637Z" fill="#B39EF5"/>
<path d="M304.417 188.343C304.417 188.343 295.225 204.163 291.455 206.443C287.685 208.724 276.592 213.783 278.211 217.426C280.128 221.741 294.224 214.694 294.224 214.694L309.498 224.461L323.52 204.233L323.244 171.709L304.417 188.343Z" fill="#B39EF5"/>
<path d="M294.148 210.638C294.148 210.638 275.751 236.707 277.593 238.85C279.837 241.462 281.336 240.26 284.585 236.305C287.837 232.35 299.884 213.414 299.884 213.414L294.148 210.638Z" fill="#B39EF5"/>
<path d="M288.918 227.464C288.918 227.464 290.608 232.386 293.451 230.049C293.451 230.049 293.497 230.567 294.039 231.447C295.094 233.16 297.294 233.48 299.242 232.287C299.242 232.287 298.458 234.036 300.732 234.678C303.941 235.583 309.987 223.802 309.987 223.802L297.792 210.086L288.918 227.464Z" fill="#B39EF5"/>
<path d="M293.158 205.097L301.18 207.548L296.888 200.608C296.886 200.606 293.693 204.611 293.158 205.097Z" fill="#B39EF5"/>
<path d="M367.274 156.038L324.892 212.684C325.533 210.789 320.519 204.952 313.274 199.246C305.867 193.411 298.864 189.875 297.379 191.178L336.883 134.196C343.025 125.336 355.372 123.482 363.852 130.144C371.837 136.418 373.356 147.909 367.274 156.038Z" fill="#4722E9"/>
<path d="M324.748 212.935C325.994 211.357 320.853 205.232 313.264 199.254C305.675 193.277 298.514 189.711 297.268 191.289C296.022 192.867 301.163 198.992 308.752 204.97C316.34 210.947 323.502 214.513 324.748 212.935Z" fill="#4722E9"/>
<path d="M325.883 150.85C325.867 150.85 325.851 150.846 325.838 150.836C325.802 150.811 325.793 150.761 325.818 150.725L335.21 137.09C335.235 137.054 335.284 137.045 335.32 137.07C335.356 137.095 335.365 137.144 335.34 137.18L325.948 150.816C325.932 150.838 325.908 150.85 325.883 150.85Z" fill="#1B1A1F" stroke="white" stroke-width="0.8"/>
<path d="M210.861 154.358C211.393 153.246 204.422 148.813 195.291 144.455C186.16 140.098 178.327 137.466 177.795 138.578C177.264 139.689 184.235 144.122 193.366 148.48C202.497 152.837 210.33 155.469 210.861 154.358Z" fill="#4722E9"/>
<path d="M251.155 48.775C252.691 48.8357 253.976 47.9156 254.016 46.7326C254.046 45.8428 253.379 45.0542 252.388 44.6902" fill="#4D4D4F"/>
<path d="M236.226 46.9236C236.259 46.9015 236.292 46.8904 236.325 46.8683C237.021 46.2717 238.093 47.244 237.386 47.8406C236.06 48.9675 234.049 47.2881 235.419 46.0176C236.756 44.7802 238.733 46.7247 237.463 48.0505C236.192 49.3763 234.137 47.1998 235.695 46.117C237.275 45.0343 238.468 47.6527 236.645 48.2935C235.773 48.6029 235.353 47.2329 236.226 46.9236Z" fill="#4D4D4F"/>
<path d="M220.955 43.3495C220.988 43.3274 221.022 43.3163 221.055 43.2942C221.751 42.6976 222.822 43.6699 222.115 44.2665C220.79 45.3934 218.779 43.7141 220.149 42.4435C221.486 41.2061 223.463 43.1506 222.193 44.4764C220.922 45.8022 218.867 43.6257 220.425 42.5429C222.005 41.4602 223.198 44.0786 221.375 44.7194C220.502 45.0288 220.082 43.6588 220.955 43.3495Z" fill="#4D4D4F"/>
<path d="M228.247 53.6907C227.805 52.7405 227.175 51.9671 226.479 51.249L226.269 52.1108C227.087 51.7683 227.628 51.1717 228.048 50.553C228.269 50.2436 228.435 49.9122 228.589 49.5807C228.722 49.2382 228.865 48.8957 228.943 48.5311C228.446 49.0725 227.948 49.5807 227.451 50.0447C226.954 50.4977 226.424 50.9286 225.904 51.0943C225.628 51.1827 225.485 51.481 225.573 51.7572C225.595 51.8235 225.628 51.8898 225.672 51.934L225.695 51.9561C226.357 52.7074 227.065 53.4034 227.982 53.9116C228.07 53.9669 228.191 53.9337 228.236 53.8343C228.269 53.8122 228.269 53.7459 228.247 53.6907Z" fill="#4D4D4F"/>
<ellipse rx="3.31446" ry="3.31447" transform="matrix(-1 0 0 1 230.81 60.7615)" fill="#4D4D4F"/>
<path d="M232.73 41.0093L242.599 43.9336C242.599 43.9336 241.59 41.9565 237.561 40.7865C233.529 39.6212 232.73 41.0093 232.73 41.0093Z" fill="#4D4D4F"/>
<path d="M227.291 40.2269L220.707 38.7463C220.707 38.7463 221.773 37.0528 224.452 37.68C227.131 38.3072 227.291 40.2269 227.291 40.2269Z" fill="#4D4D4F"/>
<path d="M194.874 102.873C194.874 102.873 144.007 176.846 143.969 196.069C143.928 215.292 166.559 212.082 176.538 196.128C186.517 180.174 210.072 150.954 210.072 150.954L194.874 102.873Z" fill="#4722E9"/>
<path d="M144.163 68.8067C144.521 64.5998 147.516 61.2491 151.385 60.2383L149.839 78.4574C146.194 76.8162 143.806 73.0127 144.163 68.8067Z" fill="#06BF9D"/>
<path d="M192.892 86.6415L208.445 88.4526C209.276 88.5488 210.028 87.9554 210.125 87.1257L212.468 67.1638C212.565 66.3342 211.971 65.5835 211.141 65.4873L195.587 63.6752L192.892 86.6415Z" fill="#EAEEF1"/>
<path d="M192.891 86.6448L202.187 87.7269L204.881 64.7611L195.585 63.679L192.891 86.6448Z" fill="#EAEEF1"/>
<path d="M146.398 100.082L153.458 39.9155C163.361 52.6881 178.193 61.6324 195.525 63.6681L192.829 86.6356C175.494 84.6333 158.992 89.929 146.398 100.082Z" fill="#EAEEF1"/>
<path d="M202.044 87.7595L202.383 122.924C202.048 123.925 201.055 124.555 200.005 124.433L191.072 123.386C189.665 123.222 188.766 121.807 189.215 120.466L192.898 86.6943L202.044 87.7595Z" fill="#EAEEF1"/>
<path d="M153.393 40.4778L146.398 100.082C158.794 90.0876 174.978 84.8002 192.015 86.5465C186.435 84.6349 151.691 71.4634 153.393 40.4778Z" fill="#EAEEF1"/>
<path d="M204.451 119.26C203.143 118.237 191.125 121.19 187.453 122.123C186.777 122.295 186.201 122.736 185.857 123.344L174.738 143.082L172.187 150.851L182.511 159.659L191.625 153.387L201.236 138.149L190.9 126.386C193.719 125.608 201.741 123.373 203.246 122.742C205.08 121.975 206 120.468 204.451 119.26Z" fill="#B39EF5"/>
<path d="M189.324 125.676C189.324 125.676 204.614 120.986 206.821 121.894C209.028 122.802 209.105 124.466 207.612 125.226C206.117 125.985 192.653 130.668 192.653 130.668L189.324 125.676Z" fill="#B39EF5"/>
<path d="M191.874 129.498C191.874 129.498 207.324 123.948 208.911 125.495C212.485 128.982 195.913 134.796 195.913 134.796L191.874 129.498Z" fill="#B39EF5"/>
<path d="M196.244 133.445C196.244 133.445 206.215 128.318 208.201 129.74C210.186 131.161 201.237 138.149 201.237 138.149L196.244 133.445Z" fill="#B39EF5"/>
<path d="M202.113 157.984L169.242 206.133C164.669 212.832 155.749 214.963 148.634 211.058C142.759 207.831 139.78 201.435 140.591 195.216C140.868 193.095 141.585 190.994 142.778 189.047L173.054 139.291C171.922 141.034 177.491 146.652 185.493 151.837C193.494 157.023 200.898 159.814 202.031 158.071C202.051 158.038 202.072 158.004 202.086 157.968L202.113 157.984Z" fill="#4722E9"/>
</svg>
