<svg width="490" height="240" viewBox="0 0 490 240" fill="none" xmlns="http://www.w3.org/2000/svg">
<rect x="40" y="239" width="410" height="1" fill="#E6E7E8"/>
<path d="M196.195 99.7505C196.195 99.7505 205.727 102.698 203.882 129.112C202.038 155.527 181.743 139.402 181.743 139.402L166.676 101.163L196.195 99.7505Z" fill="#4D4D4F"/>
<path d="M183.586 121.178L186.355 103.055L163.968 87.3901L161.14 119.553L183.586 121.178Z" fill="#B39EF5"/>
<path d="M130.082 216.186L117.706 239.607H208.506L198.886 213.346L130.082 216.186Z" fill="#4D4D4F"/>
<path d="M209.882 127.72L267.523 131.074C275.284 131.526 281.472 137.721 281.905 145.473C282.375 153.892 275.931 161.099 267.505 161.579L218.953 164.346L209.882 127.72Z" fill="#B39EF5"/>
<path d="M242.651 166.655L215.208 167.244L205.962 167.442L203.259 167.5L195.879 125.187L233.919 126.363L237.5 145L242.651 166.655Z" fill="#4722E9"/>
<path d="M241.599 165.889C241.496 165.907 241.386 165.911 241.275 165.897L241.599 165.889Z" fill="#1B1A1F"/>
<path d="M260.965 75.5459L253.05 144.37C252.073 152.862 258.628 160.349 267.183 160.513C275.117 160.666 281.7 154.424 281.962 146.503L284.258 77.1586L260.965 75.5459Z" fill="#B39EF5"/>
<path d="M188.353 124.429L185.586 117.274L160.524 114.675L155.452 123.122L188.968 124.429H188.353Z" fill="#4722E9"/>
<path d="M185.312 109.881L174.823 103.618L184.422 115.709L185.312 109.881Z" fill="#9669F7"/>
<path d="M203.882 68.5535C203.882 68.5535 203.575 108.278 189.636 110.121C175.696 111.964 163.97 87.3922 163.97 87.3922L176.209 63.1282L203.882 68.5535Z" fill="#B39EF5"/>
<path d="M194.503 68.4503C194.503 68.4503 185.227 79.3028 172.209 80.737C172.209 80.737 174.688 96.4019 163.968 100.702C163.968 100.702 169.947 122.209 155.45 123.739C140.953 125.268 126.615 145.749 126.615 145.749C126.615 145.749 113.978 131.842 124.7 113.757C133.003 99.7523 144.226 99.3218 144.226 99.3218C144.226 99.3218 138.536 81.6614 156.407 75.6708C156.407 75.6708 163.968 45.1107 196.193 56.1676L194.503 68.4503Z" fill="#4D4D4F"/>
<path d="M196.195 56.1636C196.195 56.1636 209.683 64.0367 209.155 76.4602C208.543 90.8258 201.416 91.5499 201.416 91.5499C201.416 91.5499 202.548 87.1838 202.663 84.2163C202.663 84.2163 193.631 71.1123 193.631 66.6075C193.631 62.1026 196.195 56.1636 196.195 56.1636Z" fill="#4D4D4F"/>
<path d="M208.506 125.577C208.506 125.577 151.47 118.668 141.922 124.659C131.357 131.286 122.397 136.946 126.394 178.717L130.084 216.188H197.426C197.426 216.188 209.677 177.093 209.727 165.663C209.783 151.841 208.506 125.577 208.506 125.577Z" fill="#4722E9"/>
<path d="M161.447 141.244L185.922 205.508C188.887 213.292 185.016 222.008 177.251 225.04C170.015 227.864 161.809 224.78 158.232 217.89L130.084 163.665L161.447 141.244Z" fill="#B39EF5"/>
<path d="M169.135 194.995L236.948 177.862L246.315 197.143L175.113 225.698L169.135 194.995Z" fill="#B39EF5"/>
<path d="M236.948 177.862C236.948 177.862 252.567 173.903 257.488 174.211C262.407 174.518 282.805 189.671 282.908 191.411C283.011 193.15 281.678 196.735 272.863 191.411C264.048 186.087 264.048 186.087 264.048 186.087L246.315 197.143L236.948 192.535V177.862Z" fill="#B39EF5"/>
<path d="M264.663 183.664C264.663 183.664 273.741 190.08 273.916 192.026C274.092 193.972 272.992 196.735 269.288 195.507C265.585 194.279 257.18 185.67 257.18 185.67L265.072 183.664H264.663Z" fill="#B39EF5"/>
<path d="M257.796 183.664C257.796 183.664 268.146 192.801 267.942 194.87C267.737 196.939 266.611 198.988 262.306 197.145C258 195.303 251.749 190.183 251.749 190.183L257.796 183.664Z" fill="#B39EF5"/>
<path d="M255.028 189.736C255.028 189.736 262.715 194.073 262.818 196.223C262.922 198.373 261.382 200.42 258.104 199.294C254.823 198.167 249.626 195.08 249.626 195.08L255.028 189.736Z" fill="#B39EF5"/>
<path d="M175.428 171.776C174.495 169.511 165.312 171.433 154.681 175.428C144.011 179.435 136.518 185.599 137.378 187.91C137.303 187.777 134.82 183.319 128.392 161.602C121.721 139.062 141.134 124.453 151.454 129.42C161.612 134.307 175.011 170.642 175.428 171.776Z" fill="#4722E9"/>
<path d="M172.428 171.074C172.313 171.074 172.204 171.009 172.156 170.896L160.696 144.866C160.63 144.715 160.697 144.541 160.848 144.473C160.999 144.408 161.174 144.475 161.242 144.626L172.702 170.656C172.768 170.806 172.7 170.981 172.549 171.048C172.51 171.066 172.468 171.074 172.428 171.074Z" stroke="white" stroke-width="0.846538" stroke-miterlimit="10" stroke-linecap="round" stroke-linejoin="round"/>
<path d="M260.92 75.9426C260.92 75.9426 263.023 67.2621 261.895 63.271C260.767 59.2779 256.384 48.6653 259.845 47.1974C263.946 45.4578 269.116 59.3672 269.116 59.3672L285.926 62.4537L284.26 77.1605L260.92 75.9426Z" fill="#B39EF5"/>
<path d="M266.45 62.1126C266.45 62.1126 270.567 32.338 273.214 32.0444C276.442 31.6854 276.7 33.4786 276.392 38.289C276.084 43.1013 272.19 63.884 272.19 63.884L266.45 62.1126Z" fill="#B39EF5"/>
<path d="M272.805 48.834C272.805 48.834 276.372 45.557 278.674 48.3995C278.674 48.3995 279.325 47.9433 280.266 47.6835C282.097 47.1816 283.903 48.5761 283.903 50.4724C283.903 50.4724 284.262 48.834 286.439 49.2942C288.724 49.7782 285.839 63.2193 285.839 63.2193L268.607 64.83L272.805 48.834Z" fill="#B39EF5"/>
<path d="M321.242 185.664H320.646V237.692H321.242V185.664Z" stroke="#B39EF5" stroke-miterlimit="10" stroke-linecap="round"/>
<path d="M300.273 233.938H299.677V208.107L311.233 182.282L311.777 182.526L300.273 208.234V233.938Z" stroke="#B39EF5" stroke-miterlimit="10" stroke-linecap="round"/>
<path d="M342.211 233.938H341.615V208.234L330.111 182.526L330.655 182.282L342.211 208.107V233.938Z" stroke="#B39EF5" stroke-miterlimit="10" stroke-linecap="round"/>
<path d="M332.301 196.572H345.653V190.502L329.952 159.393L331.501 180.886L332.301 196.572Z" fill="#EAEEF1"/>
<path d="M310.651 196.572H297.3V190.502L313 159.393L311.451 180.886L310.651 196.572Z" fill="#EAEEF1"/>
<path d="M333.902 191.736H310C310 191.736 311.146 158.332 315.837 140.019C317.568 133.258 319.783 128.553 322.603 128.347C325.514 128.133 327.679 132.951 329.289 140.019C333.462 158.33 333.902 191.736 333.902 191.736Z" fill="#EAEEF1"/>
<path d="M329.253 140.019H315.8C317.532 133.258 319.746 128.553 322.566 128.347C325.477 128.133 327.642 132.951 329.253 140.019Z" fill="#06BF9D"/>
<path d="M328.131 196.87H314.269L314.752 190.431H327.851L328.131 196.87Z" fill="#EAEEF1"/>
<path d="M190.276 91.551L190.346 94.9375L188.049 94.7941" fill="#4D4D4F"/>
<path d="M193.862 89.1262C193.744 90.0257 194.37 90.8533 195.27 90.9709C196.171 91.0884 196.999 90.4628 197.117 89.5633C197.235 88.6638 196.609 87.8362 195.709 87.7187C194.807 87.5925 193.98 88.2267 193.862 89.1262Z" fill="#4D4D4F"/>
<path d="M180.173 87.2821C180.055 88.1816 180.681 89.0092 181.581 89.1268C182.482 89.2443 183.31 88.6187 183.428 87.7192C183.546 86.8197 182.92 85.9921 182.02 85.8745C181.128 85.7559 180.301 86.3901 180.173 87.2821Z" fill="#4D4D4F"/>
<path d="M187.467 82.709L177.631 83.4501C177.631 83.4501 178.976 81.8039 182.987 81.5237C186.999 81.2483 187.467 82.709 187.467 82.709Z" fill="#4D4D4F"/>
<path d="M192.935 83.087L199.356 83.8477C199.356 83.8477 198.933 81.9792 196.312 81.6919C193.691 81.4047 192.935 83.087 192.935 83.087Z" fill="#4D4D4F"/>
<path d="M191.293 98.4707C191.293 98.4707 188.513 100.016 186.583 99.9685C184.259 99.9115 181.17 97.4955 181.17 97.4955C181.17 97.4955 182.561 102.064 187.773 101.464C191.38 101.058 191.293 98.4707 191.293 98.4707Z" fill="#4D4D4F"/>
<path d="M166.531 88.7135C166.531 88.7135 166.271 84.4856 162.266 85.399L166.531 88.7135Z" fill="#4D4D4F"/>
<circle cx="322.5" cy="147.5" r="3.5" fill="white"/>
<path d="M359 234H265V240H359V234Z" fill="#EAEEF1"/>
<path fill-rule="evenodd" clip-rule="evenodd" d="M399.368 162.401C400.899 163.255 401.451 165.193 400.6 166.73L360.946 238.362C360.095 239.899 358.164 240.453 356.632 239.599C355.101 238.745 354.549 236.807 355.4 235.27L395.054 163.638C395.905 162.101 397.836 161.547 399.368 162.401Z" fill="#EAEEF1"/>
</svg>
