<svg width="132" height="48" viewBox="0 0 132 48" fill="none" xmlns="http://www.w3.org/2000/svg">
<g clip-path="url(#clip0)">
<path d="M24.9819 16L16.9875 22.9987L9 16V31.9863H24.9819V16Z" fill="#939598"/>
<path d="M60.2461 16L56.3446 23.4088L44.2642 16V31.9863H60.2461V16Z" fill="#939598"/>
<path d="M71.9575 31.9863H87.9394L79.9519 16.0342L71.9575 31.9863Z" fill="#939598"/>
<path d="M26.697 31.9863H42.679L34.6914 16.0342L26.697 31.9863Z" fill="#939598"/>
<path d="M63.97 16V31.9863C68.384 31.9863 71.9575 28.405 71.9575 23.9897C71.9575 19.5814 68.384 16 63.97 16Z" fill="#939598"/>
<path d="M89.6545 32V16.0205L94.0207 25.2405L105.616 31.9863L89.6545 32Z" fill="#939598"/>
<path d="M122.882 31.9863H106.935L114.895 16.0342L122.882 31.9863Z" fill="#939598"/>
</g>
<defs>
<clipPath id="clip0">
<rect width="113.882" height="16" fill="white" transform="translate(9 16)"/>
</clipPath>
</defs>
</svg>
