<svg width="132" height="48" viewBox="0 0 132 48" fill="none" xmlns="http://www.w3.org/2000/svg">
<path d="M38.9577 11.6667C39.0389 11.2282 39.1164 10.8046 39.1939 10.381C39.3673 9.43829 39.7438 9.02456 40.6997 9.00846C42.5635 8.97873 44.4285 9.03076 46.2923 9.05305C46.558 9.05677 46.8237 9.08526 47.0907 9.10136C47.926 9.14967 48.2618 9.52996 48.2458 10.4751C46.777 10.8455 45.3081 11.3397 43.8011 11.559C42.4786 11.7522 41.9729 12.3542 41.7171 13.6573C40.7513 18.5713 39.6491 23.458 38.6046 28.3571C38.3598 29.5079 38.0731 29.7916 36.9192 29.9526C36.7002 29.9836 36.4837 30.0344 36.266 30.0765C36.266 30.9337 36.2758 31.7549 36.2586 32.5762C36.2549 32.767 36.1528 32.9565 36.0962 33.146C35.8969 33.0742 35.6558 33.0506 35.5044 32.9218C34.7392 32.2665 33.9716 31.6112 33.2605 30.899C32.8681 30.5063 32.4695 30.4196 31.9442 30.453C26.6063 30.8011 21.2671 31.1393 15.9267 31.444C15.0963 31.4911 14.2487 31.4007 13.4207 31.2892C12.6592 31.1864 12.2016 30.6748 11.9986 29.9253C10.7241 25.212 9.4459 20.5 8.17385 15.7855C8.09881 15.508 8.03115 15.2231 8.00654 14.9369C7.94257 14.1999 8.41252 13.6388 9.12851 13.5929C14.3852 13.256 19.642 12.9253 24.8999 12.5921C29.4813 12.3022 34.0639 12.0111 38.6452 11.72C38.7436 11.7138 38.842 11.6866 38.9577 11.6667ZM10.4535 15.7186C10.7512 16.9981 11.0058 18.2071 11.3146 19.4025C11.9445 21.8353 12.551 24.2768 13.2719 26.6836C13.7148 28.1614 14.8835 28.8514 16.3954 28.699C22.533 28.0809 28.6693 27.4405 34.8069 26.8248C35.2719 26.7778 35.4921 26.6106 35.55 26.1336C35.6127 25.6233 35.7505 25.1229 35.8587 24.6187C36.4234 21.9778 36.9967 19.3393 37.5528 16.6959C37.7705 15.6579 37.271 15.01 36.2217 14.9283C35.9978 14.9109 35.7714 14.9184 35.5463 14.9258C29.5416 15.1079 23.5369 15.2887 17.5334 15.4758C15.1972 15.5489 12.8635 15.6356 10.4535 15.7186Z" fill="#939598"/>
<path d="M91.4841 32.6036C90.6082 32.6036 89.7999 32.6036 88.9117 32.6036C88.9117 32.3571 88.9117 32.1378 88.9117 31.9174C88.9117 30.3281 88.9191 28.7388 88.9068 27.1496C88.9043 26.7594 88.8711 26.3642 88.7973 25.9814C88.5636 24.7811 87.5437 24.2807 86.4747 24.8765C85.5409 25.3968 84.9713 26.171 84.9898 27.3193C85.0156 28.8664 84.9959 30.4148 84.9959 31.9632C84.9959 32.1639 84.9959 32.3658 84.9959 32.6011C84.1249 32.6011 83.3142 32.6011 82.4272 32.6011C82.4149 32.3893 82.394 32.1725 82.3928 31.957C82.3903 30.2847 82.3952 28.6137 82.3866 26.9414C82.3854 26.6342 82.3559 26.3221 82.2968 26.0211C82.0471 24.744 81.0186 24.2572 79.8979 24.9186C78.9974 25.45 78.4536 26.218 78.4684 27.3354C78.4917 29.0683 78.4745 30.8013 78.4745 32.585C77.622 32.585 76.7977 32.585 75.9316 32.585C75.9316 29.2516 75.9316 25.9195 75.9316 22.5428C76.6685 22.5428 77.4128 22.5428 78.2039 22.5428C78.2039 23.0556 78.2039 23.5647 78.2039 24.2844C79.1499 23.0234 80.2546 22.3892 81.6596 22.3557C83.3905 22.3136 84.1003 22.7521 84.8015 24.3426C85.3994 23.5585 86.0379 22.8116 87.0123 22.5973C87.7196 22.4412 88.4738 22.3495 89.1898 22.4214C90.1629 22.518 90.8284 23.1634 91.1372 24.0924C91.3168 24.6337 91.4583 25.2159 91.4681 25.782C91.5063 28.029 91.4841 30.2773 91.4841 32.6036Z" fill="#939598"/>
<path d="M66.3606 31.2274C66.3606 33.0508 66.3606 34.8754 66.3606 36.7211C65.4723 36.7211 64.6592 36.7211 63.8103 36.7211C63.8103 31.9806 63.8103 27.2636 63.8103 22.5242C64.5386 22.5242 65.2324 22.5242 65.9989 22.5242C65.9989 23.0073 65.9989 23.488 65.9989 23.8744C66.7444 23.4149 67.4235 22.8116 68.2157 22.5441C70.4892 21.7736 72.8992 23.0693 73.7923 25.4526C74.4259 27.1422 74.3139 28.8231 73.5192 30.4309C72.0639 33.3741 68.2539 33.6132 66.3606 31.2274ZM66.2769 27.3924C66.3679 27.9325 66.3495 28.5233 66.5697 29.0015C67.0864 30.125 68.1825 30.7072 69.2479 30.566C70.2825 30.4285 71.1498 29.5948 71.4192 28.4019C71.6972 27.1719 71.4697 26.0459 70.4793 25.2023C69.6625 24.5074 68.7127 24.3588 67.7261 24.827C66.6607 25.3336 66.1465 26.1661 66.2769 27.3924Z" fill="#939598"/>
<path d="M49.4365 18.9604C50.4108 18.9604 51.2449 18.9604 52.1479 18.9604C52.1479 19.2119 52.1479 19.4324 52.1479 19.6529C52.1479 21.7785 52.1319 23.9054 52.1577 26.031C52.1651 26.6244 52.2377 27.2289 52.3767 27.8049C52.7765 29.4672 53.9133 30.3752 55.4744 30.3442C57.022 30.3132 58.1723 29.3495 58.5241 27.7219C58.6533 27.1223 58.7136 26.4968 58.721 25.8824C58.7443 23.8187 58.7296 21.7537 58.7296 19.6901C58.7296 19.4671 58.7296 19.2429 58.7296 18.9753C59.6153 18.9753 60.4433 18.9753 61.3229 18.9753C61.3389 19.114 61.3709 19.2689 61.3721 19.425C61.3758 21.7364 61.4188 24.0503 61.3524 26.3605C61.3253 27.2747 61.158 28.2161 60.8677 29.0832C60.0066 31.6585 57.7614 32.9567 54.783 32.7089C52.1393 32.4897 50.2706 30.9115 49.7416 28.252C49.1339 25.1912 49.605 22.087 49.4365 18.9604Z" fill="#939598"/>
<path d="M114.677 18.5605C115.54 18.5605 116.353 18.5605 117.22 18.5605C117.22 20.4087 117.22 22.2346 117.22 24.1521C117.358 24.0592 117.433 24.0332 117.473 23.9799C118.492 22.621 119.887 22.2048 121.498 22.3894C122.518 22.5058 123.264 23.0719 123.611 24.0443C123.816 24.6166 123.963 25.2422 123.975 25.8466C124.019 27.9909 123.993 30.1375 123.991 32.283C123.991 32.3808 123.971 32.4787 123.957 32.6051C123.117 32.6051 122.306 32.6051 121.41 32.6051C121.41 32.3722 121.41 32.1542 121.41 31.9362C121.41 30.2651 121.42 28.5941 121.407 26.9231C121.399 26.056 121.313 25.1641 120.388 24.7789C119.419 24.3763 118.647 24.8718 117.974 25.5432C117.473 26.0436 117.222 26.6258 117.238 27.3665C117.274 29.0945 117.25 30.825 117.25 32.5951C116.369 32.5951 115.542 32.5951 114.68 32.5951C114.677 27.9215 114.677 23.2689 114.677 18.5605Z" fill="#939598"/>
<path d="M103.496 28.4255C100.959 28.4255 98.4077 28.4255 95.8525 28.4255C95.9509 29.6073 96.6571 30.4967 97.6868 30.7964C98.8924 31.1482 100.025 30.7159 100.866 29.5552C101.551 29.746 102.253 29.9417 102.956 30.1374C102.44 32.0822 99.4189 33.3085 96.8564 32.6495C94.0896 31.9385 92.5235 29.1626 93.2309 26.2243C93.9137 23.3877 96.7038 21.7922 99.7548 22.4946C102.367 23.0954 104.063 25.745 103.496 28.4255ZM100.89 26.6876C100.771 25.1727 99.628 24.1594 98.2059 24.2375C96.8859 24.3105 95.8193 25.4068 95.8451 26.6876C97.5157 26.6876 99.1864 26.6876 100.89 26.6876Z" fill="#939598"/>
<path d="M112.613 23.7841C112.296 24.2635 111.968 24.7552 111.727 25.1207C110.732 24.7961 109.822 24.4617 108.889 24.2176C108.58 24.1371 108.202 24.2499 107.872 24.3378C107.43 24.4555 107.194 24.7961 107.167 25.2495C107.141 25.7053 107.412 25.9878 107.809 26.1277C108.387 26.3297 108.979 26.4944 109.563 26.6802C110.128 26.8611 110.704 27.0171 111.252 27.2389C112.243 27.6402 112.978 28.2757 113.02 29.4537C113.066 30.7283 112.563 31.7044 111.422 32.2891C110.011 33.0125 108.528 32.927 107.045 32.5876C106.079 32.3659 105.185 31.9683 104.403 31.2411C104.716 30.7097 105.025 30.187 105.33 29.6717C105.972 29.9975 106.546 30.3951 107.179 30.5821C107.89 30.7915 108.658 30.8869 109.401 30.8894C110.063 30.8918 110.475 30.4496 110.506 29.9343C110.544 29.3075 110.112 29.0759 109.619 28.9173C108.86 28.6733 108.096 28.4429 107.334 28.2026C107.081 28.1221 106.827 28.0378 106.579 27.9437C104.533 27.1621 104.094 24.9534 105.672 23.4051C107.286 21.8232 111.091 22.0078 112.613 23.7841Z" fill="#939598"/>
<path d="M21.8439 36.9167C20.7576 36.9142 19.8989 36.0459 19.9026 34.9533C19.9051 33.8571 20.7613 33.0061 21.8587 33.0086C22.9339 33.011 23.8221 33.8992 23.8172 34.967C23.811 36.0347 22.9166 36.9192 21.8439 36.9167Z" fill="#939598"/>
<path d="M32.8469 33.0088C33.9418 33.0051 34.8017 33.8586 34.8067 34.9511C34.8116 36.0399 33.9516 36.9107 32.8666 36.9182C31.7852 36.9244 30.9081 36.056 30.9007 34.9709C30.8921 33.8883 31.7619 33.0113 32.8469 33.0088Z" fill="#939598"/>
<path d="M24.261 36.6702C26.4053 38.3945 28.5225 38.2607 30.7516 36.716C30.6372 37.8841 30.2153 38.8069 29.3024 39.4164C28.1792 40.1671 26.9699 40.1918 25.8197 39.4957C24.7937 38.8751 24.2819 37.9027 24.261 36.6702Z" fill="#939598"/>
<path d="M13.8584 17.5532C14.0897 18.3274 14.3431 19.0459 14.5129 19.7841C14.6273 20.2833 14.8512 20.4109 15.3519 20.3948C20.2248 20.24 25.0989 20.1149 29.9731 19.9811C31.2217 19.9464 32.4716 19.9229 33.7203 19.8671C33.9036 19.8585 34.1989 19.7346 34.2407 19.6008C34.4425 18.9418 34.5766 18.2605 34.7426 17.5545C27.7537 17.5532 20.8387 17.5532 13.8584 17.5532ZM15.5733 23.0618C15.8661 23.9066 16.1417 24.6374 16.368 25.3831C16.4874 25.7758 16.6891 25.8749 17.0803 25.8365C18.8937 25.6631 20.7095 25.5157 22.5253 25.3608C25.9109 25.0722 29.2977 24.7861 32.682 24.4875C32.8419 24.4739 33.1064 24.3847 33.1286 24.2856C33.2762 23.6378 33.3697 22.9775 33.4915 22.2578C27.4757 22.5279 21.5719 22.7917 15.5733 23.0618Z" fill="white"/>
<path d="M13.8584 17.5532C20.8387 17.5532 27.7537 17.5532 34.7414 17.5532C34.5753 18.2593 34.4425 18.9406 34.2395 19.5996C34.1989 19.7334 33.9036 19.8572 33.7191 19.8659C32.4704 19.9216 31.2217 19.9464 29.9718 19.9799C25.0977 20.1136 20.2236 20.24 15.3507 20.3936C14.85 20.4097 14.6273 20.2821 14.5116 19.7829C14.3431 19.0459 14.0897 18.3274 13.8584 17.5532Z" fill="#939598"/>
<path d="M15.5735 23.0617C21.5733 22.7929 27.4771 22.5279 33.4904 22.2578C33.3686 22.9775 33.2739 23.6377 33.1275 24.2856C33.1054 24.3847 32.8409 24.4739 32.6809 24.4875C29.2954 24.7848 25.9098 25.0709 22.5242 25.3608C20.7084 25.5156 18.8926 25.663 17.0793 25.8365C16.6881 25.8736 16.4863 25.7758 16.367 25.3831C16.1406 24.6374 15.865 23.9065 15.5735 23.0617Z" fill="#939598"/>
</svg>
