<svg width="132" height="48" viewBox="0 0 132 48" fill="none" xmlns="http://www.w3.org/2000/svg">
<g clip-path="url(#clip0)">
<path d="M35.7451 12H11.0251V36.72H35.7451V12Z" fill="#939598"/>
<path d="M28.505 28.2353C28.505 28.2353 28.4166 27.3327 29.2281 27.3415C30.1071 27.3506 29.8574 28.1652 29.8574 29.7463C29.8574 31.161 28.6924 32.4646 27.0006 32.4646C25.5305 32.4646 23.6443 32.1316 21.3976 27.5829C21.3418 27.4718 21.2865 27.3332 21.2865 27.1946C21.2865 26.8616 21.5641 26.5287 21.952 26.5287H22.5347C24.8925 26.5287 27.1945 24.6982 27.1945 22.2013C27.1945 19.8161 25.0585 17.874 22.5347 17.874H20.2322V30.8555H20.9809C21.3414 30.8555 21.6469 31.1331 21.6469 31.5489C21.6469 31.9093 21.3418 32.2423 20.9809 32.2423H18.0683C17.7079 32.2423 17.3749 31.9093 17.3749 31.5489C17.3749 31.1327 17.7079 30.8555 18.0683 30.8555H18.845V17.8745H17.9018C17.5414 17.8745 17.2363 17.5415 17.2363 17.1811C17.2363 16.8206 17.5414 16.5151 17.9018 16.5151H22.5342C25.6687 16.5151 28.5813 18.9283 28.5813 22.2013C28.5813 25.1414 26.196 27.5825 23.2002 27.8601C23.8103 29.0529 25.2529 31.1331 26.8894 31.1331C27.6107 31.1331 28.4981 30.689 28.4981 29.7738C28.4985 28.7753 28.505 28.2353 28.505 28.2353Z" fill="#939598"/>
<path fill-rule="evenodd" clip-rule="evenodd" d="M27.0005 32.7261C25.2581 32.7261 23.3448 32.1173 21.1626 27.6984C21.0703 27.5132 21.0245 27.348 21.0245 27.1942C21.0245 26.7461 21.3971 26.2667 21.9515 26.2667H22.5342C24.6584 26.2667 26.9325 24.6333 26.9325 22.2014C26.9325 19.9974 24.9181 18.1356 22.5342 18.1356H20.4932V30.594H20.9805C21.5091 30.594 21.9079 31.0046 21.9079 31.5489C21.9079 32.0575 21.4743 32.5038 20.9805 32.5038H18.0678C17.5592 32.5038 17.113 32.0575 17.113 31.5489C17.113 31.0133 17.5322 30.594 18.0678 30.594H18.583V18.136H17.9014C17.4076 18.136 16.9744 17.6897 16.9744 17.1811C16.9744 16.6786 17.3989 16.2537 17.9014 16.2537H22.5338C26.0121 16.2537 28.8423 18.9218 28.8423 22.2014C28.8423 25.1035 26.5738 27.613 23.6107 28.0724C24.3755 29.4308 25.6233 30.8712 26.889 30.8712C27.4098 30.8712 28.2361 30.5731 28.2361 29.7734C28.2361 28.7732 28.2426 28.2319 28.2426 28.2319C28.2383 28.2049 28.1995 27.7071 28.5076 27.3676C28.6266 27.2365 28.8462 27.0796 29.2158 27.0796C29.5209 27.0826 29.7366 27.1615 29.8892 27.3214C30.1813 27.6271 30.1638 28.1306 30.1372 28.8928V28.8928L30.1372 28.8952C30.128 29.148 30.1184 29.4313 30.1184 29.7455C30.1193 31.2112 28.9526 32.7261 27.0005 32.7261Z" fill="white"/>
<path d="M23.5789 23.5411C24.3809 23.5411 25.031 22.8909 25.031 22.0889C25.031 21.2869 24.3809 20.6367 23.5789 20.6367C22.7769 20.6367 22.1267 21.2869 22.1267 22.0889C22.1267 22.8909 22.7769 23.5411 23.5789 23.5411Z" fill="white"/>
<path d="M23.5789 23.8026C22.634 23.8026 21.8652 23.0338 21.8652 22.0889C21.8652 21.144 22.634 20.3752 23.5789 20.3752C24.5238 20.3752 25.2926 21.144 25.2926 22.0889C25.2926 23.0338 24.5238 23.8026 23.5789 23.8026ZM23.5789 20.8982C22.9225 20.8982 22.3882 21.4326 22.3882 22.0889C22.3882 22.7453 22.9225 23.2796 23.5789 23.2796C24.2353 23.2796 24.7696 22.7453 24.7696 22.0889C24.7696 21.4326 24.2357 20.8982 23.5789 20.8982Z" fill="#939598"/>
<path d="M49.5086 31.4246C49.4092 30.8934 49.21 30.2126 48.6949 28.8354C48.1636 27.3911 47.9649 27.0093 47.55 26.6436C47.2013 26.3285 46.7864 26.1956 46.2551 26.1956H44.5615V28.9186C44.5615 30.0474 44.5947 30.6615 44.6949 31.4246H41.1255C41.2249 30.6615 41.258 30.1634 41.258 28.9348V20.003C41.258 18.9744 41.2249 18.3599 41.1255 17.5632C41.8559 17.5964 42.47 17.6125 43.5992 17.6125H47.9152C50.6047 17.6125 52.1649 19.0076 52.1649 21.3981C52.1649 22.577 51.8333 23.5061 51.1856 24.1207C50.7707 24.5024 50.4221 24.685 49.6079 24.9505C50.4548 25.2159 50.8365 25.5981 51.3678 26.7766C51.6167 27.3078 51.849 27.8722 52.5964 29.6652C52.779 30.1302 52.9782 30.5451 53.3931 31.4246H49.5086ZM47.1512 23.3567C48.1305 23.3567 48.7289 22.7591 48.7289 21.813C48.7289 20.8829 48.1976 20.4018 47.1682 20.4018H44.5615V23.3567H47.1512Z" fill="#939598"/>
<path d="M57.2524 27.291C57.418 28.636 58.1986 29.3499 59.51 29.3499C60.1742 29.3499 60.7551 29.1341 61.1866 28.7354C61.4354 28.5031 61.5514 28.3205 61.6847 27.889L64.5734 28.7022C64.1916 29.5652 63.9423 29.9474 63.4777 30.412C62.5315 31.342 61.2036 31.8232 59.5596 31.8232C57.9327 31.8232 56.654 31.3581 55.7078 30.412C54.7285 29.4157 54.1973 28.0053 54.1973 26.3614C54.1973 23.0749 56.3058 20.8997 59.4764 20.8997C62.0665 20.8997 63.8756 22.3109 64.457 24.7837C64.5895 25.315 64.6562 26.0123 64.7059 26.9585C64.7059 27.0247 64.7059 27.1245 64.7229 27.2902H57.2524V27.291ZM61.5684 25.0008C61.3361 23.9382 60.6222 23.3738 59.4764 23.3738C58.2975 23.3738 57.5841 23.9051 57.3016 25.0008H61.5684Z" fill="#939598"/>
<path d="M78.9055 17.6125C78.8061 18.3269 78.773 18.9244 78.773 20.1194V25.8305C78.773 29.6152 76.4988 31.7573 72.4975 31.7573C70.4387 31.7573 68.7625 31.1759 67.7667 30.1303C66.8035 29.1009 66.3053 27.6566 66.3053 25.7973V20.1194C66.3053 18.9745 66.2722 18.2441 66.1729 17.6125H69.7584C69.659 18.2271 69.6259 18.8913 69.6259 20.1194V25.8305C69.6259 27.9224 70.5721 28.9187 72.5145 28.9187C74.5062 28.9187 75.4524 27.9224 75.4524 25.8305V20.1194C75.4524 18.8743 75.4193 18.36 75.3199 17.6125H78.9055Z" fill="#939598"/>
<path d="M80.79 31.4248C80.8894 30.6281 80.9225 29.9312 80.9225 28.8185V20.2197C80.9225 19.0077 80.8894 18.4097 80.79 17.613H84.1598C84.0766 18.4097 84.0435 19.0081 84.0435 20.2197V21.6139C84.0435 21.8628 84.0435 22.0127 84.0265 22.2446C85.0066 21.3816 86.0687 20.9994 87.4464 20.9994C90.4684 20.9994 92.2274 22.9249 92.2274 26.2123C92.2274 27.9883 91.7131 29.4161 90.7499 30.4289C89.887 31.2918 88.7582 31.7237 87.2969 31.7237C85.9197 31.7237 85.1056 31.4413 84.0265 30.5448C84.0265 30.5941 84.0435 30.8103 84.0435 30.8931V31.4243H80.79V31.4248ZM86.6667 23.5233C85.1561 23.5233 84.0766 24.6852 84.0766 26.2955C84.0766 27.9386 85.1722 29.1833 86.6004 29.1833C88.0448 29.1833 89.0071 28.0053 89.0071 26.2454C89.0071 24.5527 88.1271 23.5233 86.6667 23.5233Z" fill="#939598"/>
<path d="M97.0322 21.2983C96.9328 21.9791 96.8997 22.6433 96.8997 23.8052V28.9187C96.8997 29.8148 96.9498 30.7113 97.0322 31.4247H93.563C93.6624 30.6115 93.6955 29.9813 93.6955 28.9187V23.8048C93.6955 22.7261 93.6624 22.0453 93.563 21.2979H97.0322V21.2983ZM96.9829 17.6125V20.1033H93.6131V17.6125H96.9829Z" fill="#939598"/>
<path d="M106.266 24.2867C105.502 24.0544 105.087 23.9712 104.572 23.9712C103.726 23.9712 103.078 24.2697 102.597 24.8673C102.281 25.266 102.165 25.6147 102.099 26.3447V28.9348C102.099 29.9974 102.132 30.628 102.231 31.4247H98.7952C98.8945 30.5949 98.9277 29.9974 98.9277 28.9187V23.8047C98.9277 22.5927 98.8945 22.0122 98.7952 21.2979H102.099V22.6097C102.912 21.5471 103.908 21.0991 105.418 21.0991C105.95 21.0991 106.281 21.1322 107.062 21.2979L106.266 24.2867Z" fill="#939598"/>
<path d="M115.816 30.8935C115.816 30.7941 115.816 30.6778 115.833 30.5287C114.72 31.4248 113.874 31.7242 112.479 31.7242C109.458 31.7242 107.632 29.6985 107.632 26.3448C107.632 24.6185 108.13 23.2404 109.06 22.2942C109.906 21.4474 111.069 20.9994 112.43 20.9994C113.774 20.9994 114.737 21.3481 115.833 22.228C115.816 21.9787 115.816 21.8292 115.816 21.5969V20.2197C115.816 19.0574 115.782 18.3435 115.683 17.613H119.086C118.987 18.3104 118.953 19.1075 118.953 20.2197V28.8185C118.953 29.9312 118.987 30.6115 119.086 31.4248H115.816V30.8935ZM110.852 26.3618C110.852 27.308 111.117 28.0715 111.615 28.5531C112.014 28.9519 112.612 29.1837 113.226 29.1837C114.704 29.1837 115.782 27.9556 115.782 26.3121C115.782 24.7022 114.72 23.5398 113.209 23.5398C111.765 23.5394 110.852 24.6189 110.852 26.3618Z" fill="#939598"/>
</g>
<defs>
<clipPath id="clip0">
<rect width="110.749" height="24.72" fill="white" transform="translate(11 12)"/>
</clipPath>
</defs>
</svg>
