<svg width="20" height="20" viewBox="0 0 20 20" fill="none" xmlns="http://www.w3.org/2000/svg">
<path d="M18.5339 17.0263C18.3816 16.8739 18.3783 16.629 18.5164 16.4636C19.4783 15.3115 19.9989 13.9322 19.9989 12.4997C19.9989 10.829 19.2901 9.29378 18.1149 8.10185C17.8795 7.86308 17.4859 8.04006 17.4441 8.37276C16.9336 12.441 12.9496 15.6244 8.12513 15.6244H5.35143C5.03968 15.6244 4.85219 15.963 5.04109 16.211C6.48837 18.1112 9.01199 19.374 11.8748 19.374H19.374C19.6279 19.374 19.8544 19.2217 19.9521 18.9874C20.0497 18.753 19.995 18.4835 19.8154 18.3077L18.5339 17.0263Z" fill="#869AB8"/>
<path fill-rule="evenodd" clip-rule="evenodd" d="M8.12519 0.625977C3.64518 0.625977 0.00101657 3.70769 0.00101657 7.50028C0.00101657 8.93308 0.521958 10.3095 1.48433 11.4643C1.62209 11.6296 1.61866 11.8742 1.46649 12.0264L0.184592 13.3083C0.00492243 13.488 -0.0497595 13.7575 0.0478868 13.9879C0.145533 14.2223 0.372073 14.3746 0.625953 14.3746H8.12519C12.6052 14.3746 16.2494 11.2929 16.2494 7.50028C16.2494 3.70769 12.6052 0.625977 8.12519 0.625977ZM11.8748 5.62547H4.37557C4.03185 5.62547 3.75063 5.90669 3.75063 6.2504C3.75063 6.59412 4.03185 6.87534 4.37557 6.87534H11.8748C12.2185 6.87534 12.4997 6.59412 12.4997 6.2504C12.4997 5.90669 12.2185 5.62547 11.8748 5.62547ZM4.37557 8.12521H9.37506C9.71878 8.12521 10 8.40644 10 8.75015C10 9.09387 9.71878 9.37509 9.37506 9.37509H4.37557C4.03185 9.37509 3.75063 9.09387 3.75063 8.75015C3.75063 8.40644 4.03185 8.12521 4.37557 8.12521Z" fill="#869AB8"/>
</svg>
