<svg width="132" height="48" viewBox="0 0 132 48" fill="none" xmlns="http://www.w3.org/2000/svg">
<g clip-path="url(#clip0)">
<path fill-rule="evenodd" clip-rule="evenodd" d="M11.0251 12H35.7451V36.72H11.0251V12ZM23.5999 23.2999C24.2626 23.2999 24.7999 22.7626 24.7999 22.0999C24.7999 21.4372 24.2626 20.8999 23.5999 20.8999C22.9372 20.8999 22.3999 21.4372 22.3999 22.0999C22.3999 22.7626 22.9372 23.2999 23.5999 23.2999ZM21.1626 27.6984C23.3448 32.1173 25.2581 32.7261 27.0005 32.7261C28.9526 32.7261 30.1193 31.2112 30.1184 29.7455C30.1184 29.4313 30.128 29.148 30.1372 28.8952L30.1372 28.8928C30.1638 28.1306 30.1813 27.6271 29.8892 27.3214C29.7366 27.1615 29.5209 27.0826 29.2158 27.0796C28.8462 27.0796 28.6266 27.2365 28.5076 27.3676C28.1995 27.7071 28.2383 28.2049 28.2426 28.2319C28.2426 28.2319 28.2361 28.7732 28.2361 29.7734C28.2361 30.5731 27.4098 30.8712 26.889 30.8712C25.6233 30.8712 24.3755 29.4308 23.6107 28.0724C26.5738 27.613 28.8423 25.1035 28.8423 22.2014C28.8423 18.9218 26.0121 16.2537 22.5338 16.2537H17.9014C17.3989 16.2537 16.9744 16.6786 16.9744 17.1811C16.9744 17.6897 17.4076 18.136 17.9014 18.136H18.583V30.594H18.0679C17.5322 30.594 17.113 31.0133 17.113 31.5489C17.113 32.0575 17.5592 32.5038 18.0679 32.5038H20.9805C21.4743 32.5038 21.9079 32.0575 21.9079 31.5489C21.9079 31.0046 21.5091 30.594 20.9805 30.594H20.4932V18.1356H22.5342C24.9181 18.1356 26.9325 19.9974 26.9325 22.2014C26.9325 24.6333 24.6584 26.2667 22.5342 26.2667H21.9515C21.3971 26.2667 21.0245 26.7461 21.0245 27.1942C21.0245 27.348 21.0702 27.5132 21.1626 27.6984ZM48.6949 28.8354C49.21 30.2126 49.4092 30.8934 49.5086 31.4246H53.3931L53.2953 31.2174C52.9456 30.4768 52.764 30.0921 52.5964 29.6652L52.3967 29.186L52.3967 29.186L52.3966 29.1858L52.3966 29.1858C51.8046 27.7651 51.593 27.2573 51.3678 26.7766C50.8365 25.5981 50.4548 25.2159 49.6079 24.9505C50.4221 24.685 50.7707 24.5024 51.1856 24.1207C51.8333 23.5061 52.1649 22.577 52.1649 21.3981C52.1649 19.0076 50.6047 17.6125 47.9152 17.6125H43.5992C42.47 17.6125 41.8559 17.5964 41.1255 17.5632C41.2249 18.3599 41.258 18.9744 41.258 20.003V28.9348C41.258 30.1634 41.2249 30.6615 41.1255 31.4246H44.6949C44.5947 30.6615 44.5615 30.0474 44.5615 28.9186V26.1956H46.2551C46.7864 26.1956 47.2013 26.3285 47.55 26.6436C47.9649 27.0093 48.1636 27.3911 48.6949 28.8354ZM48.7289 21.813C48.7289 22.7591 48.1305 23.3567 47.1512 23.3567H44.5615V20.4018H47.1682C48.1976 20.4018 48.7289 20.8829 48.7289 21.813ZM57.2524 27.291C57.418 28.636 58.1986 29.3499 59.51 29.3499C60.1742 29.3499 60.7551 29.1341 61.1866 28.7354C61.4354 28.5031 61.5514 28.3204 61.6847 27.889L64.5734 28.7022C64.1916 29.5652 63.9423 29.9474 63.4777 30.412C62.5315 31.342 61.2036 31.8232 59.5596 31.8232C57.9327 31.8232 56.654 31.3581 55.7078 30.412C54.7285 29.4157 54.1973 28.0053 54.1973 26.3614C54.1973 23.0749 56.3058 20.8997 59.4764 20.8997C62.0665 20.8997 63.8756 22.3109 64.457 24.7837C64.5895 25.315 64.6562 26.0123 64.7059 26.9585C64.7059 27.0247 64.7059 27.1245 64.7229 27.2902H57.2524V27.291ZM61.5684 25.0008C61.3361 23.9382 60.6222 23.3738 59.4764 23.3738C58.2975 23.3738 57.5841 23.9051 57.3016 25.0008H61.5684ZM78.773 20.1194C78.773 18.9244 78.8061 18.3269 78.9055 17.6125H75.3199C75.4193 18.36 75.4524 18.8743 75.4524 20.1194V25.8305C75.4524 27.9224 74.5062 28.9187 72.5145 28.9187C70.5721 28.9187 69.6259 27.9224 69.6259 25.8305V20.1194C69.6259 18.8913 69.659 18.2271 69.7584 17.6125H66.1729C66.2722 18.2441 66.3053 18.9745 66.3053 20.1194V25.7973C66.3053 27.6566 66.8035 29.1009 67.7667 30.1303C68.7625 31.1759 70.4387 31.7573 72.4975 31.7573C76.4988 31.7573 78.773 29.6152 78.773 25.8305V20.1194ZM80.79 31.4243C80.8894 30.6278 80.9225 29.931 80.9225 28.8185V20.2197C80.9225 19.0077 80.8894 18.4097 80.79 17.613H84.1598C84.0766 18.4097 84.0435 19.0081 84.0435 20.2197V21.6139C84.0435 21.8628 84.0435 22.0127 84.0265 22.2446C85.0066 21.3816 86.0687 20.9994 87.4464 20.9994C90.4684 20.9994 92.2274 22.9249 92.2274 26.2123C92.2274 27.9883 91.7131 29.4161 90.7499 30.4289C89.887 31.2918 88.7582 31.7237 87.2969 31.7237C85.9197 31.7237 85.1056 31.4413 84.0265 30.5448C84.0265 30.5663 84.0297 30.6194 84.0333 30.6793C84.038 30.7571 84.0435 30.8463 84.0435 30.8931V31.4243H80.79ZM86.6667 23.5233C85.1561 23.5233 84.0766 24.6852 84.0766 26.2955C84.0766 27.9386 85.1722 29.1833 86.6004 29.1833C88.0448 29.1833 89.0071 28.0053 89.0071 26.2454C89.0071 24.5527 88.1271 23.5233 86.6667 23.5233ZM96.8997 23.8052C96.8997 22.6433 96.9328 21.9791 97.0322 21.2983V21.2979H93.563C93.6624 22.0453 93.6955 22.7261 93.6955 23.8048V28.9187C93.6955 29.9813 93.6624 30.6115 93.563 31.4247H97.0322C96.9498 30.7113 96.8997 29.8148 96.8997 28.9187V23.8052ZM96.9829 20.1033V17.6125H93.6131V20.1033H96.9829ZM106.266 24.2867C105.502 24.0544 105.087 23.9712 104.572 23.9712C103.726 23.9712 103.078 24.2697 102.597 24.8673C102.281 25.266 102.165 25.6147 102.099 26.3447V28.9348C102.099 29.9974 102.132 30.628 102.231 31.4247H98.7952C98.8945 30.5949 98.9277 29.9974 98.9277 28.9187V23.8047C98.9277 22.5927 98.8945 22.0122 98.7952 21.2979H102.099V22.6097C102.912 21.5471 103.908 21.0991 105.418 21.0991C105.95 21.0991 106.281 21.1322 107.062 21.2979L106.266 24.2867ZM115.833 30.5287C115.816 30.6778 115.816 30.7941 115.816 30.8935V31.4248H119.086C118.987 30.6115 118.953 29.9312 118.953 28.8185V20.2197C118.953 19.1075 118.987 18.3104 119.086 17.613H115.683C115.782 18.3435 115.816 19.0574 115.816 20.2197V21.5969C115.816 21.8292 115.816 21.9787 115.833 22.228C114.737 21.3481 113.774 20.9994 112.43 20.9994C111.069 20.9994 109.906 21.4474 109.06 22.2942C108.13 23.2404 107.632 24.6185 107.632 26.3448C107.632 29.6985 109.458 31.7242 112.479 31.7242C113.874 31.7242 114.72 31.4248 115.833 30.5287ZM111.615 28.5531C111.117 28.0715 110.852 27.308 110.852 26.3618C110.852 24.6189 111.765 23.5394 113.209 23.5398C114.72 23.5398 115.782 24.7022 115.782 26.3121C115.782 27.9556 114.704 29.1838 113.226 29.1838C112.612 29.1838 112.014 28.9519 111.615 28.5531Z" fill="#939598"/>
</g>
<defs>
<clipPath id="clip0">
<rect width="110.749" height="24.72" fill="white" transform="translate(11 12)"/>
</clipPath>
</defs>
</svg>
