<svg width="132" height="48" viewBox="0 0 132 48" fill="none" xmlns="http://www.w3.org/2000/svg">
<path d="M120.902 32.0604C120.462 32.3999 119.273 33.1332 117.567 33.1332H117.49C113.79 33.1332 111.49 30.7812 111.49 26.9233V13.9768C111.49 13.8832 111.528 13.7887 111.662 13.7318C111.796 13.6758 114.749 12.3213 114.883 12.2644C115.017 12.2084 115.113 12.2644 115.113 12.3957V17.2694H119.388C119.484 17.2694 119.561 17.3456 119.561 17.4392V20.4501C119.561 20.4724 119.557 20.4946 119.548 20.5152C119.539 20.5359 119.527 20.5546 119.51 20.5704C119.494 20.5862 119.475 20.5987 119.454 20.6071C119.433 20.6156 119.411 20.6199 119.388 20.6198H115.113V26.9233C115.113 28.5981 116.091 29.7277 117.587 29.7461H117.625C118.468 29.7461 119.312 29.4074 119.637 29.2762C119.714 29.2386 119.81 29.2762 119.849 29.3514L120.96 31.8356C121.018 31.9108 120.98 31.9861 120.902 32.0613V32.0604ZM78.0912 11.5189H74.793C74.7703 11.5188 74.7479 11.5231 74.727 11.5316C74.706 11.5401 74.687 11.5526 74.671 11.5684C74.655 11.5842 74.6423 11.6029 74.6337 11.6236C74.6251 11.6442 74.6208 11.6664 74.6209 11.6887V18.4437C73.2754 17.559 71.6942 17.0876 70.0772 17.0892C65.5716 17.0892 61.9097 20.6837 61.9097 25.1059C61.9097 29.5466 65.5716 33.1218 70.0772 33.1218C71.6938 33.1207 73.2742 32.6495 74.6209 31.7673V32.7648C74.6209 32.8584 74.6972 32.9337 74.793 32.9337H78.0903C78.1129 32.9339 78.1354 32.9297 78.1564 32.9213C78.1774 32.913 78.1964 32.9005 78.2125 32.8848C78.2286 32.8691 78.2414 32.8504 78.2501 32.8298C78.2588 32.8092 78.2633 32.7871 78.2633 32.7648V11.6887C78.2438 11.5942 78.1675 11.5189 78.0903 11.5189H78.0912ZM74.6209 25.1252C74.6113 26.3071 74.1282 27.4373 73.2769 28.2692C72.4257 29.1011 71.2755 29.5672 70.0772 29.5658C67.5649 29.5658 65.5335 27.5708 65.5335 25.1059C65.5335 22.6402 67.5649 20.6461 70.0772 20.6461C72.5699 20.6461 74.6014 22.6218 74.6209 25.0867V25.1243V25.1252ZM84.206 17.2703H80.9281C80.9055 17.2701 80.883 17.2743 80.8621 17.2827C80.8411 17.291 80.822 17.3034 80.8059 17.3191C80.7898 17.3349 80.7771 17.3535 80.7684 17.3741C80.7596 17.3948 80.7552 17.4169 80.7552 17.4392V32.7762C80.7552 32.8698 80.8323 32.9459 80.9281 32.9459H84.2255C84.2481 32.946 84.2705 32.9417 84.2915 32.9332C84.3124 32.9248 84.3314 32.9123 84.3474 32.8965C84.3634 32.8807 84.3761 32.8619 84.3847 32.8413C84.3933 32.8206 84.3977 32.7985 84.3976 32.7762V17.4392C84.3789 17.3456 84.3018 17.2703 84.206 17.2703ZM108.726 17.2703H105.429C105.406 17.2702 105.384 17.2745 105.363 17.2829C105.342 17.2913 105.323 17.3037 105.307 17.3194C105.291 17.3351 105.278 17.3537 105.269 17.3743C105.261 17.3948 105.256 17.4169 105.256 17.4392V32.7762C105.256 32.8698 105.333 32.9459 105.429 32.9459H108.726C108.749 32.946 108.771 32.9417 108.792 32.9332C108.813 32.9248 108.832 32.9123 108.848 32.8965C108.864 32.8807 108.877 32.8619 108.885 32.8413C108.894 32.8206 108.898 32.7985 108.898 32.7762V17.4392C108.898 17.4169 108.894 17.3949 108.885 17.3744C108.877 17.3538 108.864 17.3352 108.848 17.3195C108.832 17.3038 108.813 17.2913 108.792 17.2829C108.771 17.2745 108.749 17.2702 108.726 17.2703ZM108.726 11.5137H105.429C105.406 11.5136 105.384 11.5179 105.363 11.5264C105.342 11.5348 105.323 11.5473 105.307 11.5631C105.291 11.5789 105.278 11.5976 105.269 11.6183C105.26 11.6389 105.256 11.6611 105.256 11.6834V14.6934C105.256 14.7879 105.333 14.8632 105.429 14.8632H108.726C108.749 14.8633 108.771 14.859 108.792 14.8506C108.813 14.8421 108.832 14.8297 108.848 14.814C108.864 14.7983 108.877 14.7797 108.885 14.7591C108.894 14.7386 108.898 14.7166 108.898 14.6943V11.6834C108.898 11.6611 108.894 11.639 108.885 11.6183C108.877 11.5977 108.864 11.5789 108.848 11.5631C108.832 11.5474 108.813 11.5349 108.792 11.5264C108.771 11.5179 108.749 11.5136 108.726 11.5137ZM84.206 11.5137H80.9281C80.9054 11.5134 80.8829 11.5177 80.8619 11.5261C80.8408 11.5345 80.8217 11.547 80.8056 11.5628C80.7895 11.5786 80.7768 11.5974 80.7681 11.6181C80.7594 11.6388 80.755 11.661 80.7552 11.6834V14.6934C80.7552 14.7879 80.8323 14.8632 80.9281 14.8632H84.2255C84.248 14.8633 84.2704 14.859 84.2913 14.8506C84.3121 14.8421 84.3311 14.8297 84.3471 14.814C84.3631 14.7983 84.3758 14.7797 84.3845 14.7591C84.3931 14.7386 84.3976 14.7166 84.3976 14.6943V11.6834C84.3789 11.5889 84.3018 11.5137 84.206 11.5137ZM102.687 27.6977V17.4418C102.667 17.3473 102.591 17.2721 102.495 17.2721H99.197C99.1744 17.2719 99.1519 17.2763 99.131 17.2847C99.1101 17.2932 99.0911 17.3057 99.0751 17.3215C99.059 17.3373 99.0464 17.3561 99.0378 17.3767C99.0292 17.3974 99.0248 17.4195 99.0249 17.4418V18.4393C97.6783 17.5569 96.0979 17.0854 94.4812 17.0839C89.957 17.0839 86.3146 20.6784 86.3146 25.1007C86.3146 29.5413 89.9756 33.1166 94.4812 33.1166C96.1489 33.1166 97.7404 32.6274 99.0249 31.7804L102.687 27.6968V27.6977ZM94.5193 29.5606C92.0089 29.5606 89.9756 27.5656 89.9756 25.1007C89.9756 22.6349 92.008 20.6408 94.5193 20.6408C97.0307 20.6408 99.0631 22.6358 99.0631 25.1007C99.0435 27.5656 97.0121 29.5606 94.5193 29.5606Z" fill="#939598"/>
<path d="M94.5237 39.7036C91.6478 39.7036 88.2546 38.1601 86.7785 35.2245C86.7208 35.1116 86.7785 34.9795 86.8938 34.9235L89.3865 33.7755C89.5196 33.7195 89.6349 33.7755 89.6926 33.87C90.5353 35.0556 91.8589 36.5423 94.5237 36.523C97.7829 36.4854 99.1632 33.9453 99.1632 31.7621V28.4503L102.69 27.6978V31.3859C102.69 36.8616 98.8758 39.7036 94.5237 39.7036Z" fill="#939598"/>
<path d="M54.0269 24C54.0269 12.4019 44.4951 3 32.7366 3C20.9781 3 11.4463 12.4019 11.4463 24C11.4463 35.5981 20.9781 45 32.7366 45C44.4951 45 54.0269 35.5981 54.0269 24Z" fill="#939598"/>
<path d="M39.9886 13.6924H25.4819C24.5831 13.6949 23.7219 14.0483 23.0864 14.6753C22.4509 15.3022 22.0929 16.1518 22.0906 17.0384V31.349C22.0929 32.2355 22.451 33.085 23.0865 33.7118C23.722 34.3386 24.5832 34.6918 25.4819 34.6941H39.9904C40.889 34.6916 41.75 34.3383 42.3853 33.7115C43.0206 33.0847 43.3786 32.2353 43.3809 31.349V17.0384C43.3788 16.1516 43.0207 15.3017 42.385 14.6747C41.7493 14.0477 40.8877 13.6945 39.9886 13.6924ZM27.611 22.7591V21.6899H26.5243C26.4737 21.6899 26.4252 21.6701 26.3894 21.6348C26.3537 21.5995 26.3336 21.5517 26.3336 21.5018V20.6268C26.3336 20.5769 26.3537 20.529 26.3894 20.4937C26.4252 20.4585 26.4737 20.4386 26.5243 20.4386H27.6083V19.3711C27.6083 19.3212 27.6284 19.2734 27.6642 19.2381C27.6999 19.2028 27.7485 19.183 27.799 19.183H28.6861C28.7367 19.183 28.7852 19.2028 28.821 19.2381C28.8568 19.2734 28.8769 19.3212 28.8769 19.3711V20.4395H29.9609C30.0115 20.4395 30.06 20.4593 30.0958 20.4946C30.1315 20.5299 30.1516 20.5777 30.1516 20.6276V21.5026C30.1516 21.5525 30.1315 21.6004 30.0958 21.6357C30.06 21.6709 30.0115 21.6908 29.9609 21.6908H28.8902V22.76C28.8902 22.8099 28.8701 22.8578 28.8343 22.893C28.7985 22.9283 28.75 22.9481 28.6994 22.9481H27.8123C27.7864 22.9497 27.7603 22.946 27.7358 22.9372C27.7113 22.9285 27.6889 22.9148 27.67 22.8972C27.651 22.8796 27.6359 22.8583 27.6256 22.8347C27.6153 22.8111 27.61 22.7857 27.6101 22.76L27.611 22.7591ZM31.5763 30.488C30.2716 30.4903 28.9978 30.0959 27.9286 29.3584C27.915 29.3487 27.9049 29.335 27.9 29.3192C27.895 29.3034 27.8954 29.2864 27.9011 29.2709C27.9048 29.2604 27.9108 29.2508 27.9188 29.2429L28.7269 28.4449C28.7394 28.433 28.7555 28.4256 28.7727 28.4239C28.7899 28.4221 28.8072 28.4261 28.8219 28.4353C29.4963 28.8617 30.2632 29.1256 31.0602 29.2054C31.8573 29.2852 32.6622 29.1788 33.4099 28.8947C34.1575 28.6107 34.8268 28.157 35.3636 27.5703C35.9004 26.9837 36.2896 26.2806 36.4997 25.518C36.5033 25.5 36.5134 25.4839 36.528 25.4727C36.5427 25.4614 36.561 25.4558 36.5795 25.4568H37.7345C37.7459 25.4569 37.7572 25.4595 37.7674 25.4645C37.7777 25.4694 37.7867 25.4765 37.7938 25.4853C37.8009 25.4941 37.806 25.5043 37.8086 25.5153C37.8113 25.5262 37.8114 25.5376 37.809 25.5486C37.4975 26.9506 36.7094 28.2053 35.5753 29.1046C34.4413 30.0038 33.0296 30.4935 31.5745 30.4924L31.5763 30.488ZM39.0856 21.4974C39.0856 21.5473 39.0655 21.5951 39.0297 21.6304C38.9939 21.6657 38.9454 21.6855 38.8948 21.6855H35.4511C35.4006 21.6855 35.352 21.6657 35.3163 21.6304C35.2805 21.5951 35.2604 21.5473 35.2604 21.4974V20.6224C35.2604 20.5725 35.2805 20.5246 35.3163 20.4894C35.352 20.4541 35.4006 20.4343 35.4511 20.4343H38.8931C38.9437 20.4343 38.9922 20.4541 39.0279 20.4894C39.0637 20.5246 39.0838 20.5725 39.0838 20.6224V21.4974H39.0856Z" fill="white"/>
</svg>
