<svg width="132" height="48" viewBox="0 0 132 48" fill="none" xmlns="http://www.w3.org/2000/svg">
<g clip-path="url(#clip0)">
<path fill-rule="evenodd" clip-rule="evenodd" d="M10.5653 16.4604C10.5653 18.3573 10.5653 18.3573 10.5653 18.3573C10.5653 18.4604 10.4602 18.5596 10.3668 18.5596C2.39023 18.5596 2.39023 18.5596 2.39023 18.5596C2.39023 22.4208 2.39023 22.4208 2.39023 22.4208C8.9731 22.4208 8.9731 22.4208 8.9731 22.4208C9.06653 22.4208 9.17164 22.4882 9.17164 22.6231C9.17164 24.4882 9.17164 24.4882 9.17164 24.4882C9.17164 24.6231 9.06653 24.7263 8.9731 24.7263C2.39023 24.7263 2.39023 24.7263 2.39023 24.7263C2.39023 30.4168 2.39023 30.4168 2.39023 30.4168C2.39023 30.5517 2.32795 30.6192 2.1917 30.6192C0.198537 30.6192 0.198537 30.6192 0.198537 30.6192C0.105108 30.6152 0 30.5477 0 30.4128C0 16.4604 0 16.4604 0 16.4604C0 16.3255 0.105108 16.2581 0.198537 16.2581C10.3668 16.2581 10.3668 16.2581 10.3668 16.2581C10.4602 16.2581 10.5653 16.3255 10.5653 16.4604Z" fill="#939598"/>
<path fill-rule="evenodd" clip-rule="evenodd" d="M22.5126 24.5557C21.7885 22.4882 20.9632 20.389 20.1341 18.5279C19.6747 18.5279 19.6747 18.5279 19.6747 18.5279C18.8455 20.389 18.0202 22.4882 17.2845 24.5557H22.5126ZM26.7169 30.6152C24.5369 30.6152 24.5369 30.6152 24.5369 30.6152C24.4007 30.6152 24.3384 30.5477 24.3072 30.4446C24.0036 29.2581 23.6454 28.0081 23.2484 26.7541C16.5604 26.7541 16.5604 26.7541 16.5604 26.7541C16.1633 28.0081 15.7935 29.262 15.5015 30.4446C15.5015 30.5477 15.4081 30.6152 15.2718 30.6152C13.1853 30.6152 13.1853 30.6152 13.1853 30.6152C13.049 30.6152 12.9556 30.5477 12.9867 30.3771C14.2753 25.8057 16.1945 20.762 18.1098 16.5279C18.2149 16.3255 18.3394 16.2581 18.5068 16.2581C21.3564 16.2581 21.3564 16.2581 21.3564 16.2581C21.555 16.2581 21.6484 16.3255 21.7535 16.5279C23.7077 20.762 25.6269 25.8057 26.8843 30.3771C26.9155 30.5477 26.8532 30.6152 26.7169 30.6152Z" fill="#939598"/>
<path fill-rule="evenodd" clip-rule="evenodd" d="M30.1853 23.6389C30.1853 19.1349 33.066 16 37.1458 16C37.4377 16 37.4377 16 37.4377 16C40.0265 16 42.0197 17.3651 43.0746 19.2738C43.1369 19.4087 43.1058 19.5119 43.0007 19.5794C41.2177 20.4643 41.2177 20.4643 41.2177 20.4643C41.1126 20.5317 40.9452 20.5317 40.8829 20.3968C40.116 19.0675 39.026 18.3532 37.3716 18.3532C37.0796 18.3532 37.0796 18.3532 37.0796 18.3532C34.4947 18.3532 32.7001 20.4643 32.7001 23.5357C32.7001 26.6032 34.4597 28.6508 37.0796 28.6508C37.3716 28.6508 37.3716 28.6508 37.3716 28.6508C39.0572 28.6508 40.0538 28.0714 40.7895 27.1508C40.8829 27.0476 41.0192 27.0159 41.1126 27.0833C42.9345 28.004 42.9345 28.004 42.9345 28.004C42.9968 28.0397 43.0396 28.0714 43.0396 28.1389C43.0396 28.1746 42.9968 28.2421 42.9656 28.3095C41.8756 29.9802 39.8513 31.004 37.3988 31.004C37.1069 31.004 37.1069 31.004 37.1069 31.004C32.9298 31 30.1853 28.0675 30.1853 23.6389Z" fill="#939598"/>
<path fill-rule="evenodd" clip-rule="evenodd" d="M58.989 28.516C58.989 30.4128 58.989 30.4128 58.989 30.4128C58.989 30.5477 58.9268 30.6152 58.7905 30.6152C48.2447 30.6152 48.2447 30.6152 48.2447 30.6152C48.1084 30.6152 48.0461 30.5477 48.0461 30.4128C48.0461 16.4604 48.0461 16.4604 48.0461 16.4604C48.0461 16.3255 48.1084 16.2581 48.2447 16.2581C58.6192 16.2581 58.6192 16.2581 58.6192 16.2581C58.7243 16.2581 58.8178 16.3255 58.8178 16.4604C58.8178 18.3573 58.8178 18.3573 58.8178 18.3573C58.8178 18.4604 58.7243 18.5596 58.6192 18.5596C50.4325 18.5596 50.4325 18.5596 50.4325 18.5596C50.4325 22.2858 50.4325 22.2858 50.4325 22.2858C57.0971 22.2858 57.0971 22.2858 57.0971 22.2858C57.1905 22.2858 57.2956 22.389 57.2956 22.4882C57.2956 24.3533 57.2956 24.3533 57.2956 24.3533C57.2956 24.4882 57.1905 24.5557 57.0971 24.5557C50.4325 24.5557 50.4325 24.5557 50.4325 24.5557C50.4325 28.3136 50.4325 28.3136 50.4325 28.3136C58.7866 28.3136 58.7866 28.3136 58.7866 28.3136C58.9268 28.3136 58.989 28.4168 58.989 28.516Z" fill="#939598"/>
<path fill-rule="evenodd" clip-rule="evenodd" d="M74.6463 26.4485C74.6463 25.1271 73.786 24.516 71.8707 24.516C67.1642 24.516 67.1642 24.516 67.1642 24.516C67.1642 28.3771 67.1642 28.3771 67.1642 28.3771C71.8707 28.3771 71.8707 28.3771 71.8707 28.3771C73.8171 28.3811 74.6463 27.8057 74.6463 26.4485ZM71.1972 18.4922C67.1603 18.4922 67.1603 18.4922 67.1603 18.4922C67.1603 22.3533 67.1603 22.3533 67.1603 22.3533C71.1972 22.3533 71.1972 22.3533 71.1972 22.3533C73.0191 22.3533 73.8482 21.7422 73.8482 20.4208C73.8482 19.0993 73.0229 18.4922 71.1972 18.4922ZM77.0988 26.6866C77.0988 29.1946 75.2107 30.6152 71.8707 30.6152C64.9725 30.6152 64.9725 30.6152 64.9725 30.6152C64.8362 30.6152 64.7739 30.5477 64.7739 30.4128C64.7739 16.4604 64.7739 16.4604 64.7739 16.4604C64.7739 16.3255 64.8362 16.2581 64.9725 16.2581C71.2711 16.2581 71.2712 16.2581 71.2712 16.2581C74.4789 16.2581 76.2696 17.5795 76.2696 19.9842C76.2696 21.5438 75.4716 22.5914 73.8794 23.0636C76.1334 23.5358 77.0988 24.9247 77.0988 26.6866Z" fill="#939598"/>
<path fill-rule="evenodd" clip-rule="evenodd" d="M88.7735 28.6468C91.6464 28.6468 93.4255 26.6032 93.4255 23.5C93.4255 20.3968 91.6425 18.3532 88.7735 18.3532C88.4698 18.3532 88.4698 18.3532 88.4698 18.3532C85.6086 18.3532 83.7867 20.3968 83.7867 23.5C83.7867 26.6032 85.6086 28.6468 88.4698 28.6468H88.7735ZM81.2485 23.5C81.2485 19.1349 84.0592 16 88.4698 16C88.7735 16 88.7735 16 88.7735 16C93.153 16 95.9636 19.1349 95.9636 23.5C95.9636 27.8651 93.153 31 88.7735 31C88.4698 31 88.4698 31 88.4698 31C84.0592 31 81.2485 27.8651 81.2485 23.5Z" fill="#939598"/>
<path fill-rule="evenodd" clip-rule="evenodd" d="M107.494 28.6468C110.375 28.6468 112.158 26.6032 112.158 23.5C112.158 20.3968 110.375 18.3532 107.494 18.3532C107.202 18.3532 107.202 18.3532 107.202 18.3532C104.322 18.3532 102.507 20.3968 102.507 23.5C102.507 26.6032 104.322 28.6468 107.202 28.6468H107.494ZM99.9888 23.5C99.9888 19.1349 102.764 16 107.198 16C107.49 16 107.49 16 107.49 16C111.893 16 114.7 19.1349 114.7 23.5C114.7 27.8651 111.889 31 107.49 31C107.198 31 107.198 31 107.198 31C102.768 31 99.9888 27.8651 99.9888 23.5Z" fill="#939598"/>
<path fill-rule="evenodd" clip-rule="evenodd" d="M131.833 30.6151C129.263 30.6151 129.263 30.6151 129.263 30.6151C129.096 30.6151 129.034 30.5794 128.897 30.4444C127.126 28.2421 124.977 26.0754 123.163 24.4841C122.011 24.4841 122.011 24.4841 122.011 24.4841C122.011 30.4087 122.011 30.4087 122.011 30.4087C122.011 30.5437 121.917 30.6111 121.781 30.6111C119.842 30.6111 119.842 30.6111 119.842 30.6111C119.706 30.6111 119.613 30.5437 119.613 30.4087C119.613 16.4563 119.613 16.4563 119.613 16.4563C119.613 16.3214 119.706 16.254 119.842 16.254C121.781 16.254 121.781 16.254 121.781 16.254C121.917 16.254 122.011 16.3214 122.011 16.4563C122.011 22.1111 122.011 22.1111 122.011 22.1111C123.163 22.1111 123.163 22.1111 123.163 22.1111C125.113 20.3175 126.928 18.3532 128.372 16.4206C128.465 16.2857 128.57 16.25 128.664 16.25C131.105 16.25 131.105 16.25 131.105 16.25C131.229 16.25 131.303 16.3175 131.303 16.3849C131.303 16.4167 131.272 16.4881 131.229 16.5556C129.092 19.2659 126.955 21.5 124.973 23.2262C127.476 25.3611 129.816 27.7619 131.922 30.3373C132.062 30.4802 132 30.6151 131.833 30.6151Z" fill="#939598"/>
</g>
<defs>
<clipPath id="clip0">
<rect width="132" height="15" fill="white" transform="translate(0 16)"/>
</clipPath>
</defs>
</svg>
