<svg width="132" height="48" viewBox="0 0 132 48" fill="none" xmlns="http://www.w3.org/2000/svg">
<path d="M48.7605 31.7984L47.2088 29.1183C47.9343 27.7279 47.9343 26.1158 47.9343 23.9798C47.9343 21.2997 47.9343 19.3451 46.3826 17.7128C45.3146 16.5642 43.9444 16 42.1509 16C40.3575 16 38.9671 16.6448 37.9192 17.7128C36.3676 19.2645 36.3676 21.2191 36.3676 23.9798C36.3676 26.6599 36.287 28.6145 37.9192 30.2467C39.0678 31.3954 40.3575 31.9596 42.1509 31.9596C42.6346 31.9596 43.0376 31.879 43.4607 31.7984H48.7605ZM40.1157 28.3727C39.5515 27.7279 39.3902 26.9823 39.3902 23.9798C39.3902 20.9773 39.5515 20.2317 40.1157 19.5869C40.5187 19.1033 41.2643 18.7808 42.0703 18.7808C42.8764 18.7808 43.622 19.1033 44.025 19.5869C44.5892 20.2317 44.7504 20.9773 44.7504 23.9798C44.7504 26.9823 44.5892 27.7279 44.025 28.3727C43.622 28.8563 42.8764 29.1787 42.0703 29.1787C41.2643 29.1787 40.5389 28.8563 40.1157 28.3727Z" fill="#939598"/>
<path d="M84.4883 16.1616H87.4908V31.7988H84.4883V16.1616Z" fill="#939598"/>
<path d="M11.7027 31.9591C9.34506 31.9591 7.55163 31.4754 6 29.9238L7.95465 27.9692C8.92189 28.9364 10.3123 29.279 11.7027 29.279C13.4962 29.279 14.4634 28.6341 14.4634 27.3243C14.4634 26.7601 14.3022 26.3571 13.9798 26.0145C13.6574 25.6921 13.335 25.6115 12.5894 25.4503L10.7153 25.2085C9.40552 25.0473 8.35767 24.5636 7.71283 23.8987C6.9874 23.1732 6.56423 22.1052 6.56423 20.7954C6.56423 18.0347 8.59948 16.0801 12.0251 16.0801C14.141 16.0801 15.7732 16.5637 17.083 17.8735L15.1284 19.7476C14.1611 18.7803 12.9319 18.6796 11.9445 18.6796C10.3123 18.6796 9.50627 19.5662 9.50627 20.6342C9.50627 21.0372 9.66748 21.4402 9.98989 21.7828C10.3123 22.1052 10.7959 22.2664 11.4609 22.4276L13.335 22.6695C14.806 22.8307 15.6926 23.2337 16.3375 23.8987C17.1435 24.7047 17.5667 25.8533 17.5667 27.2437C17.5667 30.2462 14.9672 31.9591 11.7027 31.9591Z" fill="#939598"/>
<path d="M21.9597 31.7988V16.1616H32.2972V18.8417H25.0428V22.5092H31.2292V25.29H25.0428V29.1187H32.2972V31.7988H21.9597Z" fill="#939598"/>
<path d="M58.2719 31.96C55.088 31.96 52.4885 29.7635 52.4885 26.4185V16.1616H55.5918V26.3379C55.5918 28.1313 56.6598 29.1792 58.2719 29.1792C59.8839 29.1792 60.9519 28.1112 60.9519 26.3379V16.1616H63.9544V26.4185C63.9746 29.7635 61.4557 31.96 58.2719 31.96Z" fill="#939598"/>
<path d="M78.4629 30.2467C77.3949 31.3954 76.0247 31.9596 74.2312 31.9596C72.4378 31.9596 71.0474 31.3147 69.9995 30.2467C68.4479 28.6951 68.4479 26.7405 68.4479 23.9798C68.4479 21.2997 68.3673 19.3451 69.9995 17.7128C71.0675 16.5642 72.4378 16 74.2312 16C76.0247 16 77.3345 16.6448 78.4629 17.7128C80.0146 19.2645 80.0146 21.2191 80.0146 23.9798C80.0146 26.6599 80.0146 28.6145 78.4629 30.2467ZM76.1859 19.5869C75.7829 19.1033 75.0373 18.7808 74.2312 18.7808C73.4252 18.7808 72.6796 19.1033 72.2766 19.5869C71.7124 20.2317 71.5512 20.9773 71.5512 23.9798C71.5512 26.9823 71.7124 27.7279 72.2766 28.3727C72.6796 28.8563 73.4252 29.1787 74.2312 29.1787C75.0373 29.1787 75.7829 28.8563 76.1859 28.3727C76.7501 27.7279 76.9113 26.9823 76.9113 23.9798C76.9315 20.9773 76.7703 20.2317 76.1859 19.5869Z" fill="#939598"/>
<path d="M101.919 31.7988L101.032 29.0381H95.4907L94.5235 31.7988H91.3396L97.0423 16.1616H99.4L105.103 31.7988H101.919ZM98.2514 20.7157L96.2967 26.4185H100.206L98.2514 20.7157Z" fill="#939598"/>
<path d="M123.017 16.1616H126.926V20.0709H123.017V16.1616Z" fill="#939598"/>
<path d="M113.244 28.4537V16.1616H111.289V30.4084L113.244 28.4537Z" fill="#939598"/>
<path d="M114.614 29.8438L112.659 31.7984H126.906V29.8438H114.614Z" fill="#939598"/>
<path d="M117.153 24.5444V16.1616H115.198V26.4991L117.153 24.5444Z" fill="#939598"/>
<path d="M118.523 25.9343L116.569 27.889H126.906V25.9343H118.523Z" fill="#939598"/>
<path d="M121.062 20.6351V16.1616H119.107V22.5898L121.062 20.6351Z" fill="#939598"/>
<path d="M122.432 22.0254L120.478 23.98H126.906V22.0254H122.432Z" fill="#939598"/>
</svg>
