<svg width="490" height="240" viewBox="0 0 490 240" fill="none" xmlns="http://www.w3.org/2000/svg">
<path d="M88 80.7959H402.404" stroke="#B39EF5" stroke-miterlimit="10" stroke-linecap="round"/>
<path d="M398.659 239.374H91.7444C89.6739 239.374 88 237.7 88 235.629V65.7444C88 63.6739 89.6739 62 91.7444 62H398.659C400.73 62 402.404 63.6739 402.404 65.7444V235.636C402.404 237.7 400.73 239.374 398.659 239.374Z" stroke="#B39EF5" stroke-miterlimit="10" stroke-linecap="round"/>
<path d="M103.897 71.5925C103.897 73.0378 102.72 74.2143 101.275 74.2143C99.8298 74.2143 98.6533 73.0378 98.6533 71.5925C98.6533 70.1471 99.8298 68.9707 101.275 68.9707C102.72 68.9707 103.897 70.1404 103.897 71.5925Z" stroke="#B39EF5" stroke-miterlimit="10" stroke-linecap="round"/>
<path d="M114.088 71.5925C114.088 73.0378 112.912 74.2143 111.467 74.2143C110.021 74.2143 108.845 73.0378 108.845 71.5925C108.845 70.1471 110.021 68.9707 111.467 68.9707C112.912 68.9707 114.088 70.1404 114.088 71.5925Z" stroke="#B39EF5" stroke-miterlimit="10" stroke-linecap="round"/>
<path d="M124.28 71.5925C124.28 73.0378 123.103 74.2143 121.658 74.2143C120.213 74.2143 119.036 73.0378 119.036 71.5925C119.036 70.1471 120.213 68.9707 121.658 68.9707C123.103 68.9707 124.28 70.1404 124.28 71.5925Z" stroke="#B39EF5" stroke-miterlimit="10" stroke-linecap="round"/>
<path d="M199.845 212.322H170.803C163.179 212.322 157 218.501 157 226.125C157 233.75 163.179 239.928 170.803 239.928H204.966L199.845 212.322Z" fill="#B39EF5"/>
<path d="M160.19 217.298L178.213 187.781L204.966 191.399L200.998 226.135L160.19 217.298Z" fill="#B39EF5"/>
<path d="M192.668 212.322H170.804" stroke="white" stroke-width="0.846538" stroke-miterlimit="10" stroke-linecap="round" stroke-linejoin="round"/>
<path d="M290.753 212.322H319.795C327.419 212.322 333.598 218.501 333.598 226.125C333.598 233.75 327.419 239.928 319.795 239.928H285.632L290.753 212.322Z" fill="#B39EF5"/>
<path d="M330.096 216.949L307.398 181.971L285.631 191.399L289.598 226.135L330.096 216.949Z" fill="#B39EF5"/>
<path d="M292.393 212.322H319.785" stroke="white" stroke-width="0.846538" stroke-miterlimit="10" stroke-linecap="round" stroke-linejoin="round"/>
<path d="M242.863 136.012C242.863 136.012 213.947 136.012 192.665 156.945V215.601C192.665 215.601 294.525 217.153 294.525 215.601C294.525 214.049 294.554 153.065 294.554 153.065C294.554 153.065 273.709 136.012 242.863 136.012Z" fill="#4722E9"/>
<path d="M196.973 153.065C196.973 153.065 181.259 165.753 164.691 193.689C164.691 193.689 168.261 209.849 199.126 212.332L196.973 153.065Z" fill="#4722E9"/>
<path d="M294.546 153.065C294.546 153.065 310.26 165.753 326.828 193.689C326.828 193.689 323.258 209.849 292.393 212.332L294.546 153.065Z" fill="#4722E9"/>
<path d="M289.9 239.938H197.284C194.733 239.938 192.667 237.872 192.667 235.321V176.849C192.667 174.298 194.733 172.232 197.284 172.232H289.9C292.451 172.232 294.517 174.298 294.517 176.849V235.321C294.517 237.872 292.451 239.938 289.9 239.938Z" fill="#EAEEF1"/>
<path d="M243.593 212.331C247.043 212.331 249.839 209.535 249.839 206.085C249.839 202.635 247.043 199.838 243.593 199.838C240.142 199.838 237.346 202.635 237.346 206.085C237.346 209.535 240.142 212.331 243.593 212.331Z" fill="white"/>
<path d="M253.341 123.654H233.359V146.032H253.341V123.654Z" fill="#B39EF5"/>
<path d="M232.38 122.442C232.38 122.442 234.145 133.558 242.516 133.762C253.516 134.024 253.332 122.937 253.332 122.937C253.332 122.937 251.828 126.196 243.331 126.215C233.854 126.225 232.38 122.442 232.38 122.442Z" fill="#9669F7"/>
<path d="M243.39 114.604C258.738 114.604 271.181 101.845 271.181 86.1055C271.181 70.3662 258.738 57.6069 243.39 57.6069C228.042 57.6069 215.6 70.3662 215.6 86.1055C215.6 101.845 228.042 114.604 243.39 114.604Z" fill="#4D4D4F"/>
<path d="M267.406 96.5043C267.406 96.5043 269.404 93.3227 273.536 94.8844C277.659 96.4461 275.797 106.466 269.608 107.747C269.608 107.747 267.387 108.232 265.65 106.709C265.65 106.709 267.173 99.3076 267.406 96.5043Z" fill="#B39EF5"/>
<path d="M272.711 98.4155C272.711 98.4155 269.258 97.2612 266.804 102.354L272.711 98.4155Z" fill="#4D4D4F"/>
<path d="M220.022 96.5043C220.022 96.5043 218.024 93.3227 213.891 94.8844C209.769 96.4461 211.631 106.466 217.82 107.747C217.82 107.747 220.041 108.232 221.777 106.709C221.787 106.709 220.264 99.3076 220.022 96.5043Z" fill="#B39EF5"/>
<path d="M214.717 98.415C214.717 98.415 218.17 97.2607 220.624 102.353L214.717 98.415Z" fill="#4D4D4F"/>
<path d="M267.794 87.8612C267.794 94.2826 267.134 107.717 262.973 115.691C259.064 123.179 252.604 127.204 244.126 127.447C235.648 127.689 229.333 124.585 224.28 114.876C219.216 105.156 219.459 87.9776 219.459 87.9776C219.459 87.9776 219.459 65.0371 243.369 65.0371C268.541 65.0371 267.794 87.8612 267.794 87.8612Z" fill="#B39EF5"/>
<path d="M220.023 96.504C220.023 96.504 225.125 85.3102 220.624 77.2495C220.624 77.2398 216.55 90.2087 220.023 96.504Z" fill="#4D4D4F"/>
<path d="M267.339 96.504C267.339 96.504 262.237 85.3102 266.737 77.2495C266.737 77.2398 270.811 90.2087 267.339 96.504Z" fill="#4D4D4F"/>
<path d="M255.777 66.3276C255.777 66.3276 253.42 79.8979 267.456 86.0671C267.465 86.0671 266.883 70.1882 255.777 66.3276Z" fill="#4D4D4F"/>
<path d="M258.938 68.025C258.938 68.025 256.833 81.5662 238.423 78.5495C224.096 76.2021 219.721 87.1534 219.721 87.1534C219.721 87.1534 217.18 66.7931 240.314 62.6221C240.314 62.6318 252.148 62.5639 258.938 68.025Z" fill="#4D4D4F"/>
<path d="M235.134 98.9194C235.134 100.122 234.154 101.102 232.951 101.102C231.748 101.102 230.769 100.122 230.769 98.9194C230.769 97.7166 231.748 96.7369 232.951 96.7369C234.154 96.7272 235.134 97.7069 235.134 98.9194Z" fill="#4D4D4F"/>
<path d="M253.176 101.102C254.381 101.102 255.358 100.125 255.358 98.9193C255.358 97.714 254.381 96.7368 253.176 96.7368C251.97 96.7368 250.993 97.714 250.993 98.9193C250.993 100.125 251.97 101.102 253.176 101.102Z" fill="#4D4D4F"/>
<path d="M241.962 103.672V106.621C241.962 107.368 242.622 107.921 243.33 107.775L244.901 107.446" fill="#4D4D4F"/>
<path d="M239.803 89.4981L225.803 90.6372C225.803 90.6372 226.93 88.1229 232.649 87.6923C238.368 87.2616 239.803 89.4981 239.803 89.4981Z" fill="#4D4D4F"/>
<path d="M246.803 89.4981L260.803 90.6372C260.803 90.6372 259.675 88.1229 253.956 87.6923C248.238 87.2616 246.803 89.4981 246.803 89.4981Z" fill="#4D4D4F"/>
<path d="M237.186 105.242C240.717 101.712 240.717 95.9876 237.186 92.4571C233.656 88.9267 227.932 88.9267 224.401 92.4571C220.871 95.9876 220.871 101.712 224.401 105.242C227.932 108.773 233.656 108.773 237.186 105.242Z" stroke="white" stroke-width="1.2497" stroke-miterlimit="10"/>
<path d="M265.187 100.903C266.329 96.0424 263.315 91.176 258.454 90.0337C253.594 88.8913 248.727 91.9055 247.585 96.7661C246.443 101.627 249.457 106.493 254.317 107.635C259.178 108.778 264.044 105.764 265.187 100.903Z" stroke="white" stroke-width="1.2497" stroke-miterlimit="10"/>
<path d="M239.827 99.5984C239.827 99.5984 243.018 94.6902 247.345 99.5984" stroke="white" stroke-width="1.2497" stroke-miterlimit="10"/>
<path d="M235.831 111.772C235.831 111.772 237.16 113.489 243.067 113.489C248.441 113.489 250.876 111.772 250.876 111.772" fill="#4D4D4F"/>
<path d="M242.864 136.012C242.864 136.012 230.662 135.353 214.715 142.405C214.715 142.405 214.385 156.159 241.894 156.159C269.413 156.159 271.858 141.086 271.858 141.086C271.858 141.086 254.388 134.848 242.864 136.012Z" fill="#B39EF5"/>
<path d="M253.341 67.278C263.359 67.278 271.48 59.1569 271.48 49.139C271.48 39.1211 263.359 31 253.341 31C243.323 31 235.202 39.1211 235.202 49.139C235.202 59.1569 243.323 67.278 253.341 67.278Z" fill="#4D4D4F"/>
<circle cx="390" cy="73" r="6" fill="#5D04D9"/>
<path d="M392.637 77.4478H387.198C386.196 77.4478 385.385 76.6363 385.385 75.6352V70.1974C385.385 69.1962 386.196 68.3848 387.198 68.3848H392.637C393.638 68.3848 394.45 69.1962 394.45 70.1974V75.6352C394.45 76.6363 393.638 77.4478 392.637 77.4478Z" fill="#5D04D9"/>
<path d="M391.582 69.1582C391.58 69.1582 391.58 69.1582 391.579 69.1576V69.157C391.467 69.128 391.35 69.1123 391.23 69.1123C390.663 69.1123 390.177 69.4543 389.965 69.9431L389.427 71.1781L388.417 73.5C388.153 74.2347 388.248 74.5102 388.408 74.88C388.579 75.2129 388.587 75.805 388.529 76.0497C388.47 76.2944 388.301 76.7192 388.301 76.7192L388.507 76.5832L389.048 75.46L389.052 75.4588C389.1 75.4637 389.149 75.4673 389.198 75.4673C389.705 75.4673 390.148 75.1924 390.388 74.7839C390.388 74.7833 390.389 74.7821 390.39 74.7815L390.449 74.6619L390.504 74.5356C390.311 74.6123 390.091 74.6214 389.882 74.541C389.817 74.5163 389.757 74.4836 389.703 74.4462C390.152 74.4323 390.575 74.1966 390.822 73.8088C390.63 73.8855 390.41 73.8933 390.201 73.8136C390.137 73.7888 390.077 73.7562 390.023 73.7187C390.476 73.7048 390.876 73.4855 391.148 73.0722C391.42 72.659 391.452 72.4439 391.495 72.2741C391.537 72.1043 391.561 71.9986 391.561 71.8524C391.562 71.4161 391.315 70.9847 390.918 70.6862C390.914 70.6838 390.92 70.6899 390.918 70.6862L391.576 69.1655L391.582 69.1582Z" fill="white"/>
<path d="M391.467 69.1499C390.989 69.1499 390.601 69.5378 390.601 70.0163C390.601 70.2864 390.724 70.5275 390.917 70.6864L391.582 69.1584C391.545 69.1529 391.506 69.1499 391.467 69.1499Z" fill="#06BF9D"/>
</svg>
